# MagicaVoxel @ Ephtracy

# group
o 

# material
mtllib Arboles.mtl
usemtl palette

# normals
vn -1 0 0
vn 1 0 0
vn 0 0 1
vn 0 0 -1
vn 0 -1 0
vn 0 1 0

# texcoords
vt 0.169922 0.5
vt 0.541016 0.5

# verts
v -1.5 3 1.5
v -1.5 3 -1
v -1.5 4.6 1.5
v -1.5 4.6 -1
v -1.3 2.2 1
v -1.3 2.2 -0.6
v -1.3 3 1
v -1.3 3 -0.6
v -1.1 3.3 -1
v -1.1 3.3 -1.7
v -1.1 4.6 0.7
v -1.1 4.6 -1
v -1.1 4.9 -0.9
v -1.1 4.9 -1.7
v -1.1 5.7 0.7
v -1.1 5.7 -0.9
v -0.9 2.9 -0.6
v -0.9 2.9 -1.7
v -0.9 3.3 -0.9
v -0.9 3.3 -1.7
v -0.9 3.8 -0.6
v -0.9 3.8 -0.9
v -0.6 4.6 1.5
v -0.6 4.6 0.7
v -0.6 4.8 1.5
v -0.6 4.8 0.7
v -0.2 0 0.2
v -0.2 0 -0.3
v -0.2 2.2 0.2
v -0.2 2.2 -0.3
v 0.3 2.3 -0.6
v 0.3 2.3 -0.8
v 0.3 2.9 -0.6
v 0.3 2.9 -0.8
v -1.1 3 -0.6
v -1.1 3 -1
v -1.1 3.3 -0.9
v -1.1 3.3 -1
v -1.1 3.8 -0.6
v -1.1 3.8 -0.9
v -0.6 4.5 -0.9
v -0.6 4.5 -1.7
v -0.6 4.9 -0.9
v -0.6 4.9 -1.7
v -0.2 3 1.5
v -0.2 3 1
v -0.2 3.2 1.5
v -0.2 3.2 1
v 0.3 0 0.2
v 0.3 0 -0.3
v 0.3 2.2 1
v 0.3 2.2 0.2
v 0.3 2.2 -0.3
v 0.3 2.2 -0.6
v 0.3 2.3 0.8
v 0.3 2.3 0.2
v 0.3 2.3 -0.3
v 0.3 2.3 -0.6
v 0.3 3.2 1
v 0.3 3.2 0.8
v 0.6 4.7 0.7
v 0.6 4.7 -0.9
v 0.6 4.8 0.7
v 0.6 5.7 0.7
v 0.6 5.7 -0.9
v 0.7 2.9 -0.8
v 0.7 2.9 -1.7
v 0.7 3.1 -0.8
v 0.7 3.1 -0.9
v 0.7 4.5 -0.9
v 0.7 4.5 -1.7
v 1 3.2 1.5
v 1 3.2 0.8
v 1 3.9 0.8
v 1 3.9 0.7
v 1 4.7 0.7
v 1 4.8 1.5
v 1 4.8 0.7
v 1.7 2.3 0.8
v 1.7 2.3 -0.8
v 1.7 3.1 -0.8
v 1.7 3.1 -0.9
v 1.7 3.9 0.8
v 1.7 3.9 0.7
v 1.7 4.7 0.7
v 1.7 4.7 -0.9
v -1.5 3 1.5
v -1.5 4.6 1.5
v -0.6 4.6 1.5
v -0.6 4.8 1.5
v -0.2 3 1.5
v -0.2 3.2 1.5
v 1 3.2 1.5
v 1 4.8 1.5
v -1.3 2.2 1
v -1.3 3 1
v -0.2 3 1
v -0.2 3.2 1
v 0.3 2.2 1
v 0.3 3.2 1
v 0.3 2.3 0.8
v 0.3 3.2 0.8
v 1 3.2 0.8
v 1 3.9 0.8
v 1.7 2.3 0.8
v 1.7 3.9 0.8
v -1.1 4.6 0.7
v -1.1 5.7 0.7
v -0.6 4.6 0.7
v -0.6 4.8 0.7
v 0.6 4.8 0.7
v 0.6 5.7 0.7
v 1 3.9 0.7
v 1 4.7 0.7
v 1.7 3.9 0.7
v 1.7 4.7 0.7
v -0.2 0 0.2
v -0.2 2.2 0.2
v 0.3 0 0.2
v 0.3 2.2 0.2
v -1.1 3.3 -0.9
v -1.1 3.8 -0.9
v -0.9 3.3 -0.9
v -0.9 3.8 -0.9
v 0.6 4.7 0.7
v 0.6 4.8 0.7
v 1 4.7 0.7
v 1 4.8 0.7
v -0.2 0 -0.3
v -0.2 2.2 -0.3
v 0.3 0 -0.3
v 0.3 2.2 -0.3
v -1.3 2.2 -0.6
v -1.3 3 -0.6
v -1.1 3 -0.6
v -1.1 3.8 -0.6
v -0.9 2.9 -0.6
v -0.9 3.8 -0.6
v 0.3 2.2 -0.6
v 0.3 2.3 -0.6
v 0.3 2.9 -0.6
v 0.3 2.3 -0.8
v 0.3 2.9 -0.8
v 0.7 2.9 -0.8
v 0.7 3.1 -0.8
v 1.7 2.3 -0.8
v 1.7 3.1 -0.8
v -1.1 4.9 -0.9
v -1.1 5.7 -0.9
v -0.6 4.5 -0.9
v -0.6 4.9 -0.9
v 0.6 4.7 -0.9
v 0.6 5.7 -0.9
v 0.7 3.1 -0.9
v 0.7 4.5 -0.9
v 1.7 3.1 -0.9
v 1.7 4.7 -0.9
v -1.5 3 -1
v -1.5 4.6 -1
v -1.1 3 -1
v -1.1 3.3 -1
v -1.1 4.6 -1
v -1.1 3.3 -1.7
v -1.1 4.9 -1.7
v -0.9 2.9 -1.7
v -0.9 3.3 -1.7
v -0.6 4.5 -1.7
v -0.6 4.9 -1.7
v 0.7 2.9 -1.7
v 0.7 4.5 -1.7
v -0.2 0 0.2
v 0.3 0 0.2
v -0.2 0 -0.3
v 0.3 0 -0.3
v -1.3 2.2 1
v 0.3 2.2 1
v -0.2 2.2 0.2
v 0.3 2.2 0.2
v -0.2 2.2 -0.3
v 0.3 2.2 -0.3
v -1.3 2.2 -0.6
v 0.3 2.2 -0.6
v 0.3 2.3 0.8
v 1.7 2.3 0.8
v 0.3 2.3 0.2
v 0.3 2.3 -0.3
v 0.3 2.3 -0.6
v 0.3 2.3 -0.8
v 1.7 2.3 -0.8
v -0.9 2.9 -0.6
v 0.3 2.9 -0.6
v 0.3 2.9 -0.8
v 0.7 2.9 -0.8
v -0.9 2.9 -1.7
v 0.7 2.9 -1.7
v -1.5 3 1.5
v -0.2 3 1.5
v -1.3 3 1
v -0.2 3 1
v -1.3 3 -0.6
v -1.1 3 -0.6
v -1.5 3 -1
v -1.1 3 -1
v 0.7 3.1 -0.8
v 1.7 3.1 -0.8
v 0.7 3.1 -0.9
v 1.7 3.1 -0.9
v -0.2 3.2 1.5
v 1 3.2 1.5
v -0.2 3.2 1
v 0.3 3.2 1
v 0.3 3.2 0.8
v 1 3.2 0.8
v -1.1 3.3 -0.9
v -0.9 3.3 -0.9
v -1.1 3.3 -1
v -1.1 3.3 -1.7
v -0.9 3.3 -1.7
v -1.1 3.8 -0.6
v -0.9 3.8 -0.6
v -1.1 3.8 -0.9
v -0.9 3.8 -0.9
v 1 3.9 0.8
v 1.7 3.9 0.8
v 1 3.9 0.7
v 1.7 3.9 0.7
v -0.6 4.5 -0.9
v 0.7 4.5 -0.9
v -0.6 4.5 -1.7
v 0.7 4.5 -1.7
v -1.5 4.6 1.5
v -0.6 4.6 1.5
v -1.1 4.6 0.7
v -0.6 4.6 0.7
v -1.5 4.6 -1
v -1.1 4.6 -1
v 0.6 4.7 0.7
v 1 4.7 0.7
v 1.7 4.7 0.7
v 0.6 4.7 -0.9
v 1.7 4.7 -0.9
v -0.6 4.8 1.5
v 1 4.8 1.5
v -0.6 4.8 0.7
v 0.6 4.8 0.7
v 1 4.8 0.7
v -1.1 4.9 -0.9
v -0.6 4.9 -0.9
v -1.1 4.9 -1.7
v -0.6 4.9 -1.7
v -1.1 5.7 0.7
v 0.6 5.7 0.7
v -1.1 5.7 -0.9
v 0.6 5.7 -0.9

# faces
f 3/2/1 2/2/1 1/2/1
f 4/2/1 2/2/1 3/2/1
f 7/2/1 6/2/1 5/2/1
f 8/2/1 6/2/1 7/2/1
f 12/2/1 10/2/1 9/2/1
f 13/2/1 12/2/1 11/2/1
f 14/2/1 10/2/1 12/2/1
f 14/2/1 12/2/1 13/2/1
f 15/2/1 13/2/1 11/2/1
f 16/2/1 13/2/1 15/2/1
f 19/2/1 18/2/1 17/2/1
f 20/2/1 18/2/1 19/2/1
f 21/2/1 19/2/1 17/2/1
f 22/2/1 19/2/1 21/2/1
f 25/2/1 24/2/1 23/2/1
f 26/2/1 24/2/1 25/2/1
f 29/1/1 28/1/1 27/1/1
f 30/1/1 28/1/1 29/1/1
f 33/2/1 32/2/1 31/2/1
f 34/2/1 32/2/1 33/2/1
f 35/2/2 36/2/2 37/2/2
f 37/2/2 36/2/2 38/2/2
f 35/2/2 37/2/2 39/2/2
f 39/2/2 37/2/2 40/2/2
f 41/2/2 42/2/2 43/2/2
f 43/2/2 42/2/2 44/2/2
f 45/2/2 46/2/2 47/2/2
f 47/2/2 46/2/2 48/2/2
f 49/1/2 50/1/2 52/1/2
f 52/1/2 50/1/2 53/1/2
f 51/2/2 52/2/2 55/2/2
f 52/1/2 53/1/2 56/1/2
f 55/2/2 52/2/2 56/2/2
f 53/2/2 54/2/2 57/2/2
f 56/1/2 53/1/2 57/1/2
f 57/2/2 54/2/2 58/2/2
f 51/2/2 55/2/2 59/2/2
f 59/2/2 55/2/2 60/2/2
f 61/2/2 62/2/2 63/2/2
f 63/2/2 62/2/2 64/2/2
f 64/2/2 62/2/2 65/2/2
f 66/2/2 67/2/2 68/2/2
f 68/2/2 67/2/2 69/2/2
f 69/2/2 67/2/2 70/2/2
f 70/2/2 67/2/2 71/2/2
f 72/2/2 73/2/2 74/2/2
f 74/2/2 75/2/2 76/2/2
f 72/2/2 74/2/2 77/2/2
f 74/2/2 76/2/2 77/2/2
f 77/2/2 76/2/2 78/2/2
f 79/2/2 80/2/2 81/2/2
f 79/2/2 81/2/2 83/2/2
f 81/2/2 82/2/2 83/2/2
f 83/2/2 82/2/2 84/2/2
f 84/2/2 82/2/2 85/2/2
f 85/2/2 82/2/2 86/2/2
f 89/2/3 88/2/3 87/2/3
f 91/2/3 89/2/3 87/2/3
f 91/2/3 90/2/3 89/2/3
f 92/2/3 90/2/3 91/2/3
f 93/2/3 90/2/3 92/2/3
f 94/2/3 90/2/3 93/2/3
f 97/2/3 96/2/3 95/2/3
f 99/2/3 97/2/3 95/2/3
f 99/2/3 98/2/3 97/2/3
f 100/2/3 98/2/3 99/2/3
f 103/2/3 102/2/3 101/2/3
f 105/2/3 103/2/3 101/2/3
f 105/2/3 104/2/3 103/2/3
f 106/2/3 104/2/3 105/2/3
f 109/2/3 108/2/3 107/2/3
f 110/2/3 108/2/3 109/2/3
f 111/2/3 108/2/3 110/2/3
f 112/2/3 108/2/3 111/2/3
f 115/2/3 114/2/3 113/2/3
f 116/2/3 114/2/3 115/2/3
f 119/1/3 118/1/3 117/1/3
f 120/1/3 118/1/3 119/1/3
f 123/2/3 122/2/3 121/2/3
f 124/2/3 122/2/3 123/2/3
f 125/2/4 126/2/4 127/2/4
f 127/2/4 126/2/4 128/2/4
f 129/1/4 130/1/4 131/1/4
f 131/1/4 130/1/4 132/1/4
f 133/2/4 134/2/4 135/2/4
f 133/2/4 135/2/4 137/2/4
f 135/2/4 136/2/4 137/2/4
f 137/2/4 136/2/4 138/2/4
f 133/2/4 137/2/4 139/2/4
f 139/2/4 137/2/4 140/2/4
f 140/2/4 137/2/4 141/2/4
f 142/2/4 143/2/4 144/2/4
f 142/2/4 144/2/4 146/2/4
f 144/2/4 145/2/4 146/2/4
f 146/2/4 145/2/4 147/2/4
f 148/2/4 149/2/4 151/2/4
f 150/2/4 151/2/4 152/2/4
f 151/2/4 149/2/4 153/2/4
f 152/2/4 151/2/4 153/2/4
f 150/2/4 152/2/4 155/2/4
f 154/2/4 155/2/4 156/2/4
f 155/2/4 152/2/4 157/2/4
f 156/2/4 155/2/4 157/2/4
f 158/2/4 159/2/4 160/2/4
f 160/2/4 159/2/4 161/2/4
f 161/2/4 159/2/4 162/2/4
f 163/2/4 164/2/4 166/2/4
f 166/2/4 164/2/4 167/2/4
f 165/2/4 166/2/4 167/2/4
f 167/2/4 164/2/4 168/2/4
f 165/2/4 167/2/4 169/2/4
f 169/2/4 167/2/4 170/2/4
f 173/1/5 172/1/5 171/1/5
f 174/1/5 172/1/5 173/1/5
f 177/2/5 176/2/5 175/2/5
f 178/2/5 176/2/5 177/2/5
f 179/2/5 177/2/5 175/2/5
f 181/2/5 179/2/5 175/2/5
f 181/2/5 180/2/5 179/2/5
f 182/2/5 180/2/5 181/2/5
f 185/2/5 184/2/5 183/2/5
f 186/2/5 184/2/5 185/2/5
f 187/2/5 184/2/5 186/2/5
f 188/2/5 184/2/5 187/2/5
f 189/2/5 184/2/5 188/2/5
f 192/2/5 191/2/5 190/2/5
f 194/2/5 192/2/5 190/2/5
f 194/2/5 193/2/5 192/2/5
f 195/2/5 193/2/5 194/2/5
f 198/2/5 197/2/5 196/2/5
f 199/2/5 197/2/5 198/2/5
f 200/2/5 198/2/5 196/2/5
f 202/2/5 200/2/5 196/2/5
f 202/2/5 201/2/5 200/2/5
f 203/2/5 201/2/5 202/2/5
f 206/2/5 205/2/5 204/2/5
f 207/2/5 205/2/5 206/2/5
f 210/2/5 209/2/5 208/2/5
f 211/2/5 209/2/5 210/2/5
f 212/2/5 209/2/5 211/2/5
f 213/2/5 209/2/5 212/2/5
f 216/2/5 215/2/5 214/2/5
f 217/2/5 215/2/5 216/2/5
f 218/2/5 215/2/5 217/2/5
f 221/2/5 220/2/5 219/2/5
f 222/2/5 220/2/5 221/2/5
f 223/2/6 224/2/6 225/2/6
f 225/2/6 224/2/6 226/2/6
f 227/2/6 228/2/6 229/2/6
f 229/2/6 228/2/6 230/2/6
f 231/2/6 232/2/6 233/2/6
f 233/2/6 232/2/6 234/2/6
f 231/2/6 233/2/6 235/2/6
f 235/2/6 233/2/6 236/2/6
f 237/2/6 238/2/6 240/2/6
f 238/2/6 239/2/6 240/2/6
f 240/2/6 239/2/6 241/2/6
f 242/2/6 243/2/6 244/2/6
f 244/2/6 243/2/6 245/2/6
f 245/2/6 243/2/6 246/2/6
f 247/2/6 248/2/6 249/2/6
f 249/2/6 248/2/6 250/2/6
f 251/2/6 252/2/6 253/2/6
f 253/2/6 252/2/6 254/2/6
