# MagicaVoxel @ Ephtracy

# group
o 

# material
mtllib Cofre cerrado.mtl
usemtl palette

# normals
vn -1 0 0
vn 1 0 0
vn 0 0 1
vn 0 0 -1
vn 0 -1 0
vn 0 1 0

# texcoords
vt 0.310547 0.5
vt 0.478516 0.5
vt 0.982422 0.5
vt 0.990234 0.5

# verts
v 0.4 0.3 0.2
v 0.4 0.3 -0.3
v 0.4 0.4 0.1
v 0.4 0.4 -0.2
v 0.4 0.6 0.1
v 0.4 0.6 -0.2
v 0.4 0.7 0.2
v 0.4 0.7 -0.3
v 0.5 0 1.6
v 0.5 0 1.5
v 0.5 0 -1.5
v 0.5 0 -1.6
v 0.5 0.3 0.2
v 0.5 0.3 -0.3
v 0.5 0.5 1.5
v 0.5 0.5 0.2
v 0.5 0.5 -0.3
v 0.5 0.5 -1.5
v 0.5 0.6 1.4
v 0.5 0.6 0.2
v 0.5 0.6 -0.3
v 0.5 0.6 -1.4
v 0.5 0.7 1.6
v 0.5 0.7 1.4
v 0.5 0.7 0.2
v 0.5 0.7 -0.3
v 0.5 0.7 -1.4
v 0.5 0.7 -1.6
v 0.6 0.7 1.5
v 0.6 0.7 1.4
v 0.6 0.7 1.3
v 0.6 0.7 -1.3
v 0.6 0.7 -1.4
v 0.6 0.7 -1.5
v 0.6 0.8 1.5
v 0.6 0.8 1.3
v 0.6 0.8 -1.3
v 0.6 0.8 -1.5
v 0.7 0.8 1.4
v 0.7 0.8 1.3
v 0.7 0.8 1.2
v 0.7 0.8 -1.2
v 0.7 0.8 -1.3
v 0.7 0.8 -1.4
v 0.7 0.9 1.4
v 0.7 0.9 1.2
v 0.7 0.9 -1.2
v 0.7 0.9 -1.4
v 0.8 0.9 1.3
v 0.8 0.9 1.2
v 0.8 0.9 -1.2
v 0.8 0.9 -1.3
v 0.8 1 1.3
v 0.8 1 -1.3
v 1.7 0.9 1.3
v 1.7 0.9 1.2
v 1.7 0.9 -1.2
v 1.7 0.9 -1.3
v 1.7 1 1.3
v 1.7 1 -1.3
v 1.8 0.8 1.4
v 1.8 0.8 1.3
v 1.8 0.8 1.2
v 1.8 0.8 -1.2
v 1.8 0.8 -1.3
v 1.8 0.8 -1.4
v 1.8 0.9 1.4
v 1.8 0.9 1.2
v 1.8 0.9 -1.2
v 1.8 0.9 -1.4
v 1.9 0.7 1.5
v 1.9 0.7 1.4
v 1.9 0.7 1.3
v 1.9 0.7 -1.3
v 1.9 0.7 -1.4
v 1.9 0.7 -1.5
v 1.9 0.8 1.5
v 1.9 0.8 1.3
v 1.9 0.8 -1.3
v 1.9 0.8 -1.5
v 2 0 1.6
v 2 0 1.5
v 2 0 -1.5
v 2 0 -1.6
v 2 0.5 1.5
v 2 0.5 -1.5
v 2 0.6 1.4
v 2 0.6 -1.4
v 2 0.7 1.6
v 2 0.7 1.4
v 2 0.7 -1.4
v 2 0.7 -1.6
v 0.5 0 1.6
v 0.5 0.7 1.6
v 0.6 0 1.6
v 0.6 0.5 1.6
v 0.7 0.6 1.6
v 0.7 0.7 1.6
v 1.8 0.6 1.6
v 1.8 0.7 1.6
v 1.9 0 1.6
v 1.9 0.5 1.6
v 2 0 1.6
v 2 0.7 1.6
v 0.6 0.7 1.5
v 0.6 0.8 1.5
v 0.7 0.7 1.5
v 0.8 0.7 1.5
v 0.8 0.8 1.5
v 1.7 0.7 1.5
v 1.7 0.8 1.5
v 1.8 0.7 1.5
v 1.9 0.7 1.5
v 1.9 0.8 1.5
v 0.7 0.8 1.4
v 0.7 0.9 1.4
v 0.8 0.8 1.4
v 0.9 0.8 1.4
v 0.9 0.9 1.4
v 1.6 0.8 1.4
v 1.6 0.9 1.4
v 1.7 0.8 1.4
v 1.8 0.8 1.4
v 1.8 0.9 1.4
v 0.8 0.9 1.3
v 0.8 1 1.3
v 0.9 0.9 1.3
v 1.6 0.9 1.3
v 1.7 0.9 1.3
v 1.7 1 1.3
v 0.4 0.3 0.2
v 0.4 0.7 0.2
v 0.5 0.3 0.2
v 0.5 0.5 0.2
v 0.5 0.6 0.2
v 0.5 0.7 0.2
v 0.4 0.3 -0.3
v 0.4 0.7 -0.3
v 0.5 0.3 -0.3
v 0.5 0.5 -0.3
v 0.5 0.6 -0.3
v 0.5 0.7 -0.3
v 0.8 0.9 -1.3
v 0.8 1 -1.3
v 0.9 0.9 -1.3
v 1.6 0.9 -1.3
v 1.7 0.9 -1.3
v 1.7 1 -1.3
v 0.7 0.8 -1.4
v 0.7 0.9 -1.4
v 0.8 0.8 -1.4
v 0.9 0.8 -1.4
v 0.9 0.9 -1.4
v 1.6 0.8 -1.4
v 1.6 0.9 -1.4
v 1.7 0.8 -1.4
v 1.8 0.8 -1.4
v 1.8 0.9 -1.4
v 0.6 0.7 -1.5
v 0.6 0.8 -1.5
v 0.7 0.7 -1.5
v 0.8 0.7 -1.5
v 0.8 0.8 -1.5
v 1.7 0.7 -1.5
v 1.7 0.8 -1.5
v 1.8 0.7 -1.5
v 1.9 0.7 -1.5
v 1.9 0.8 -1.5
v 0.5 0 -1.6
v 0.5 0.7 -1.6
v 0.6 0 -1.6
v 0.6 0.5 -1.6
v 0.7 0.6 -1.6
v 0.7 0.7 -1.6
v 1.8 0.6 -1.6
v 1.8 0.7 -1.6
v 1.9 0 -1.6
v 1.9 0.5 -1.6
v 2 0 -1.6
v 2 0.7 -1.6
v 0.5 0 1.6
v 0.6 0 1.6
v 1.9 0 1.6
v 2 0 1.6
v 0.5 0 1.5
v 0.6 0 1.5
v 1.9 0 1.5
v 2 0 1.5
v 0.5 0 -1.5
v 0.6 0 -1.5
v 1.9 0 -1.5
v 2 0 -1.5
v 0.5 0 -1.6
v 0.6 0 -1.6
v 1.9 0 -1.6
v 2 0 -1.6
v 0.4 0.3 0.2
v 0.5 0.3 0.2
v 0.4 0.3 -0.3
v 0.5 0.3 -0.3
v 0.5 0.7 1.6
v 0.7 0.7 1.6
v 1.8 0.7 1.6
v 2 0.7 1.6
v 0.6 0.7 1.5
v 0.7 0.7 1.5
v 0.8 0.7 1.5
v 1.7 0.7 1.5
v 1.8 0.7 1.5
v 1.9 0.7 1.5
v 0.5 0.7 1.4
v 0.6 0.7 1.4
v 1.9 0.7 1.4
v 2 0.7 1.4
v 0.6 0.7 1.3
v 1.9 0.7 1.3
v 0.4 0.7 0.2
v 0.5 0.7 0.2
v 0.4 0.7 -0.3
v 0.5 0.7 -0.3
v 0.6 0.7 -1.3
v 1.9 0.7 -1.3
v 0.5 0.7 -1.4
v 0.6 0.7 -1.4
v 1.9 0.7 -1.4
v 2 0.7 -1.4
v 0.6 0.7 -1.5
v 0.7 0.7 -1.5
v 0.8 0.7 -1.5
v 1.7 0.7 -1.5
v 1.8 0.7 -1.5
v 1.9 0.7 -1.5
v 0.5 0.7 -1.6
v 0.7 0.7 -1.6
v 1.8 0.7 -1.6
v 2 0.7 -1.6
v 0.6 0.8 1.5
v 0.8 0.8 1.5
v 1.7 0.8 1.5
v 1.9 0.8 1.5
v 0.7 0.8 1.4
v 0.8 0.8 1.4
v 0.9 0.8 1.4
v 1.6 0.8 1.4
v 1.7 0.8 1.4
v 1.8 0.8 1.4
v 0.6 0.8 1.3
v 0.7 0.8 1.3
v 1.8 0.8 1.3
v 1.9 0.8 1.3
v 0.7 0.8 1.2
v 1.8 0.8 1.2
v 0.7 0.8 -1.2
v 1.8 0.8 -1.2
v 0.6 0.8 -1.3
v 0.7 0.8 -1.3
v 1.8 0.8 -1.3
v 1.9 0.8 -1.3
v 0.7 0.8 -1.4
v 0.8 0.8 -1.4
v 0.9 0.8 -1.4
v 1.6 0.8 -1.4
v 1.7 0.8 -1.4
v 1.8 0.8 -1.4
v 0.6 0.8 -1.5
v 0.8 0.8 -1.5
v 1.7 0.8 -1.5
v 1.9 0.8 -1.5
v 0.7 0.9 1.4
v 0.9 0.9 1.4
v 1.6 0.9 1.4
v 1.8 0.9 1.4
v 0.8 0.9 1.3
v 0.9 0.9 1.3
v 1.6 0.9 1.3
v 1.7 0.9 1.3
v 0.7 0.9 1.2
v 0.8 0.9 1.2
v 1.7 0.9 1.2
v 1.8 0.9 1.2
v 0.7 0.9 -1.2
v 0.8 0.9 -1.2
v 1.7 0.9 -1.2
v 1.8 0.9 -1.2
v 0.8 0.9 -1.3
v 0.9 0.9 -1.3
v 1.6 0.9 -1.3
v 1.7 0.9 -1.3
v 0.7 0.9 -1.4
v 0.9 0.9 -1.4
v 1.6 0.9 -1.4
v 1.8 0.9 -1.4
v 0.8 1 1.3
v 1.7 1 1.3
v 0.9 1 1.2
v 1.6 1 1.2
v 0.9 1 -1.2
v 1.6 1 -1.2
v 0.8 1 -1.3
v 1.7 1 -1.3

# faces
f 3/2/1 2/2/1 1/2/1
f 4/2/1 2/2/1 3/2/1
f 5/2/1 3/2/1 1/2/1
f 5/3/1 4/3/1 3/3/1
f 6/2/1 2/2/1 4/2/1
f 6/3/1 4/3/1 5/3/1
f 7/2/1 5/2/1 1/2/1
f 7/2/1 6/2/1 5/2/1
f 8/2/1 2/2/1 6/2/1
f 8/2/1 6/2/1 7/2/1
f 13/1/1 11/1/1 10/1/1
f 14/1/1 11/1/1 13/1/1
f 15/4/1 10/4/1 9/4/1
f 15/1/1 13/1/1 10/1/1
f 16/1/1 13/1/1 15/1/1
f 17/1/1 11/1/1 14/1/1
f 18/4/1 12/4/1 11/4/1
f 18/1/1 11/1/1 17/1/1
f 19/4/1 16/4/1 15/4/1
f 20/4/1 16/4/1 19/4/1
f 21/4/1 18/4/1 17/4/1
f 22/4/1 18/4/1 21/4/1
f 23/4/1 15/4/1 9/4/1
f 23/4/1 19/4/1 15/4/1
f 24/1/1 20/1/1 19/1/1
f 24/4/1 19/4/1 23/4/1
f 25/1/1 20/1/1 24/1/1
f 26/1/1 22/1/1 21/1/1
f 27/4/1 18/4/1 22/4/1
f 27/1/1 22/1/1 26/1/1
f 28/4/1 12/4/1 18/4/1
f 28/4/1 18/4/1 27/4/1
f 35/4/1 30/4/1 29/4/1
f 35/4/1 31/4/1 30/4/1
f 36/1/1 32/1/1 31/1/1
f 36/4/1 31/4/1 35/4/1
f 37/4/1 34/4/1 33/4/1
f 37/1/1 32/1/1 36/1/1
f 37/4/1 33/4/1 32/4/1
f 38/4/1 34/4/1 37/4/1
f 45/4/1 40/4/1 39/4/1
f 45/4/1 41/4/1 40/4/1
f 46/1/1 42/1/1 41/1/1
f 46/4/1 41/4/1 45/4/1
f 47/4/1 44/4/1 43/4/1
f 47/1/1 42/1/1 46/1/1
f 47/4/1 43/4/1 42/4/1
f 48/4/1 44/4/1 47/4/1
f 53/4/1 50/4/1 49/4/1
f 53/4/1 52/4/1 51/4/1
f 53/4/1 51/4/1 50/4/1
f 54/4/1 52/4/1 53/4/1
f 55/4/2 56/4/2 59/4/2
f 57/4/2 58/4/2 59/4/2
f 56/4/2 57/4/2 59/4/2
f 59/4/2 58/4/2 60/4/2
f 61/4/2 62/4/2 67/4/2
f 62/4/2 63/4/2 67/4/2
f 63/1/2 64/1/2 68/1/2
f 67/4/2 63/4/2 68/4/2
f 65/4/2 66/4/2 69/4/2
f 68/1/2 64/1/2 69/1/2
f 64/4/2 65/4/2 69/4/2
f 69/4/2 66/4/2 70/4/2
f 71/4/2 72/4/2 77/4/2
f 72/4/2 73/4/2 77/4/2
f 73/1/2 74/1/2 78/1/2
f 77/4/2 73/4/2 78/4/2
f 75/4/2 76/4/2 79/4/2
f 78/1/2 74/1/2 79/1/2
f 74/4/2 75/4/2 79/4/2
f 79/4/2 76/4/2 80/4/2
f 81/4/2 82/4/2 85/4/2
f 82/1/2 83/1/2 85/1/2
f 83/4/2 84/4/2 86/4/2
f 85/1/2 83/1/2 86/1/2
f 85/4/2 86/4/2 87/4/2
f 87/4/2 86/4/2 88/4/2
f 81/4/2 85/4/2 89/4/2
f 85/4/2 87/4/2 89/4/2
f 87/1/2 88/1/2 90/1/2
f 89/4/2 87/4/2 90/4/2
f 88/4/2 86/4/2 91/4/2
f 90/1/2 88/1/2 91/1/2
f 86/4/2 84/4/2 92/4/2
f 91/4/2 86/4/2 92/4/2
f 95/4/3 94/4/3 93/4/3
f 96/4/3 94/4/3 95/4/3
f 97/4/3 94/4/3 96/4/3
f 98/4/3 94/4/3 97/4/3
f 99/4/3 97/4/3 96/4/3
f 99/1/3 98/1/3 97/1/3
f 100/1/3 98/1/3 99/1/3
f 101/1/3 96/1/3 95/1/3
f 102/4/3 99/4/3 96/4/3
f 102/1/3 96/1/3 101/1/3
f 102/4/3 100/4/3 99/4/3
f 103/4/3 102/4/3 101/4/3
f 104/4/3 100/4/3 102/4/3
f 104/4/3 102/4/3 103/4/3
f 107/4/3 106/4/3 105/4/3
f 108/4/3 106/4/3 107/4/3
f 109/4/3 106/4/3 108/4/3
f 110/1/3 109/1/3 108/1/3
f 111/1/3 109/1/3 110/1/3
f 112/4/3 111/4/3 110/4/3
f 113/4/3 111/4/3 112/4/3
f 114/4/3 111/4/3 113/4/3
f 117/4/3 116/4/3 115/4/3
f 118/4/3 116/4/3 117/4/3
f 119/4/3 116/4/3 118/4/3
f 120/1/3 119/1/3 118/1/3
f 121/1/3 119/1/3 120/1/3
f 122/4/3 121/4/3 120/4/3
f 123/4/3 121/4/3 122/4/3
f 124/4/3 121/4/3 123/4/3
f 127/4/3 126/4/3 125/4/3
f 128/4/3 126/4/3 127/4/3
f 129/4/3 126/4/3 128/4/3
f 130/4/3 126/4/3 129/4/3
f 133/2/3 132/2/3 131/2/3
f 134/2/3 132/2/3 133/2/3
f 135/2/3 132/2/3 134/2/3
f 136/2/3 132/2/3 135/2/3
f 137/2/4 138/2/4 139/2/4
f 139/2/4 138/2/4 140/2/4
f 140/2/4 138/2/4 141/2/4
f 141/2/4 138/2/4 142/2/4
f 143/4/4 144/4/4 145/4/4
f 145/4/4 144/4/4 146/4/4
f 146/4/4 144/4/4 147/4/4
f 147/4/4 144/4/4 148/4/4
f 149/4/4 150/4/4 151/4/4
f 151/4/4 150/4/4 152/4/4
f 152/4/4 150/4/4 153/4/4
f 152/1/4 153/1/4 154/1/4
f 154/1/4 153/1/4 155/1/4
f 154/4/4 155/4/4 156/4/4
f 156/4/4 155/4/4 157/4/4
f 157/4/4 155/4/4 158/4/4
f 159/4/4 160/4/4 161/4/4
f 161/4/4 160/4/4 162/4/4
f 162/4/4 160/4/4 163/4/4
f 162/1/4 163/1/4 164/1/4
f 164/1/4 163/1/4 165/1/4
f 164/4/4 165/4/4 166/4/4
f 166/4/4 165/4/4 167/4/4
f 167/4/4 165/4/4 168/4/4
f 169/4/4 170/4/4 171/4/4
f 171/4/4 170/4/4 172/4/4
f 172/4/4 170/4/4 173/4/4
f 173/4/4 170/4/4 174/4/4
f 172/4/4 173/4/4 175/4/4
f 173/1/4 174/1/4 175/1/4
f 175/1/4 174/1/4 176/1/4
f 171/1/4 172/1/4 177/1/4
f 172/4/4 175/4/4 178/4/4
f 177/1/4 172/1/4 178/1/4
f 175/4/4 176/4/4 178/4/4
f 177/4/4 178/4/4 179/4/4
f 178/4/4 176/4/4 180/4/4
f 179/4/4 178/4/4 180/4/4
f 185/4/5 182/4/5 181/4/5
f 186/1/5 183/1/5 182/1/5
f 186/4/5 182/4/5 185/4/5
f 187/4/5 184/4/5 183/4/5
f 187/1/5 183/1/5 186/1/5
f 188/4/5 184/4/5 187/4/5
f 189/1/5 186/1/5 185/1/5
f 189/1/5 187/1/5 186/1/5
f 189/1/5 188/1/5 187/1/5
f 190/1/5 188/1/5 189/1/5
f 191/1/5 188/1/5 190/1/5
f 192/1/5 188/1/5 191/1/5
f 193/4/5 190/4/5 189/4/5
f 194/1/5 191/1/5 190/1/5
f 194/4/5 190/4/5 193/4/5
f 195/4/5 192/4/5 191/4/5
f 195/1/5 191/1/5 194/1/5
f 196/4/5 192/4/5 195/4/5
f 199/2/5 198/2/5 197/2/5
f 200/2/5 198/2/5 199/2/5
f 201/4/6 202/4/6 205/4/6
f 202/1/6 203/1/6 206/1/6
f 205/4/6 202/4/6 206/4/6
f 206/1/6 203/1/6 207/1/6
f 207/1/6 203/1/6 208/1/6
f 203/4/6 204/4/6 209/4/6
f 208/1/6 203/1/6 209/1/6
f 209/4/6 204/4/6 210/4/6
f 201/4/6 205/4/6 211/4/6
f 211/4/6 205/4/6 212/4/6
f 210/4/6 204/4/6 213/4/6
f 213/4/6 204/4/6 214/4/6
f 211/1/6 212/1/6 215/1/6
f 213/1/6 214/1/6 216/1/6
f 211/1/6 215/1/6 218/1/6
f 217/2/6 218/2/6 219/2/6
f 218/1/6 215/1/6 220/1/6
f 219/2/6 218/2/6 220/2/6
f 220/1/6 215/1/6 221/1/6
f 216/1/6 214/1/6 222/1/6
f 220/1/6 221/1/6 223/1/6
f 223/1/6 221/1/6 224/1/6
f 222/1/6 214/1/6 225/1/6
f 225/1/6 214/1/6 226/1/6
f 223/4/6 224/4/6 227/4/6
f 225/4/6 226/4/6 232/4/6
f 223/4/6 227/4/6 233/4/6
f 227/4/6 228/4/6 233/4/6
f 230/1/6 231/1/6 234/1/6
f 233/4/6 228/4/6 234/4/6
f 228/1/6 229/1/6 234/1/6
f 229/1/6 230/1/6 234/1/6
f 231/4/6 232/4/6 235/4/6
f 234/1/6 231/1/6 235/1/6
f 232/4/6 226/4/6 236/4/6
f 235/4/6 232/4/6 236/4/6
f 237/4/6 238/4/6 241/4/6
f 238/1/6 239/1/6 242/1/6
f 241/4/6 238/4/6 242/4/6
f 242/1/6 239/1/6 243/1/6
f 243/1/6 239/1/6 244/1/6
f 239/4/6 240/4/6 245/4/6
f 244/1/6 239/1/6 245/1/6
f 245/4/6 240/4/6 246/4/6
f 237/4/6 241/4/6 247/4/6
f 247/4/6 241/4/6 248/4/6
f 246/4/6 240/4/6 249/4/6
f 249/4/6 240/4/6 250/4/6
f 247/1/6 248/1/6 251/1/6
f 249/1/6 250/1/6 252/1/6
f 247/1/6 251/1/6 253/1/6
f 252/1/6 250/1/6 254/1/6
f 247/1/6 253/1/6 255/1/6
f 255/1/6 253/1/6 256/1/6
f 254/1/6 250/1/6 257/1/6
f 257/1/6 250/1/6 258/1/6
f 255/4/6 256/4/6 259/4/6
f 257/4/6 258/4/6 264/4/6
f 255/4/6 259/4/6 265/4/6
f 259/4/6 260/4/6 265/4/6
f 262/1/6 263/1/6 266/1/6
f 265/4/6 260/4/6 266/4/6
f 260/1/6 261/1/6 266/1/6
f 261/1/6 262/1/6 266/1/6
f 263/4/6 264/4/6 267/4/6
f 266/1/6 263/1/6 267/1/6
f 264/4/6 258/4/6 268/4/6
f 267/4/6 264/4/6 268/4/6
f 269/4/6 270/4/6 273/4/6
f 270/1/6 271/1/6 274/1/6
f 273/4/6 270/4/6 274/4/6
f 271/4/6 272/4/6 275/4/6
f 274/1/6 271/1/6 275/1/6
f 275/4/6 272/4/6 276/4/6
f 269/4/6 273/4/6 277/4/6
f 277/4/6 273/4/6 278/4/6
f 276/4/6 272/4/6 279/4/6
f 279/4/6 272/4/6 280/4/6
f 277/1/6 278/1/6 281/1/6
f 281/1/6 278/1/6 282/1/6
f 279/1/6 280/1/6 283/1/6
f 283/1/6 280/1/6 284/1/6
f 281/4/6 282/4/6 285/4/6
f 283/4/6 284/4/6 288/4/6
f 281/4/6 285/4/6 289/4/6
f 285/4/6 286/4/6 289/4/6
f 286/1/6 287/1/6 290/1/6
f 289/4/6 286/4/6 290/4/6
f 287/4/6 288/4/6 291/4/6
f 290/1/6 287/1/6 291/1/6
f 288/4/6 284/4/6 292/4/6
f 291/4/6 288/4/6 292/4/6
f 293/4/6 294/4/6 295/4/6
f 295/4/6 294/4/6 296/4/6
f 293/4/6 295/4/6 297/4/6
f 295/1/6 296/1/6 297/1/6
f 296/4/6 294/4/6 298/4/6
f 297/1/6 296/1/6 298/1/6
f 293/4/6 297/4/6 299/4/6
f 297/4/6 298/4/6 299/4/6
f 298/4/6 294/4/6 300/4/6
f 299/4/6 298/4/6 300/4/6
