# MagicaVoxel @ Ephtracy

# group
o 

# material
mtllib Montana.mtl
usemtl palette

# normals
vn -1 0 0
vn 1 0 0
vn 0 0 1
vn 0 0 -1
vn 0 -1 0
vn 0 1 0

# texcoords
vt 0.982422 0.5

# verts
v -12.8 0 12.8
v -12.8 0 -12.8
v -12.8 21.7 12.8
v -12.8 21.7 -12.8
v -11.2 0 6.6
v -11.2 0 1.8
v -11.2 5.2 1.8
v -11.2 6.7 6.6
v -11.2 6.7 2.1
v -11.2 8.4 2.1
v -11.2 8.4 1.8
v -10.6 0 -6.9
v -10.6 0 -11
v -10.6 0.1 -6.9
v -10.6 0.1 -11
v -12 15 12.8
v -12 15 7.7
v -12 15 -3.3
v -12 15 -7.5
v -12 15 -10.5
v -12 15 -12.8
v -12 15.1 1.5
v -12 15.1 -3.3
v -12 18.9 -7.5
v -12 18.9 -10.5
v -12 20.3 7.7
v -12 20.3 1.5
v -12 21.7 12.8
v -12 21.7 -12.8
v -11.3 0 6.6
v -11.3 0 1.8
v -11.3 0 -2
v -11.3 0 -2.4
v -11.3 0 -5.4
v -11.3 0 -12.8
v -11.3 0.1 -5.4
v -11.3 0.1 -12.8
v -11.3 5.2 1.8
v -11.3 5.2 -2
v -11.3 6.3 -5.4
v -11.3 6.3 -12.8
v -11.3 6.7 6.6
v -11.3 6.7 2.1
v -11.3 6.7 1.5
v -11.3 6.7 -2.4
v -11.3 6.7 -5.4
v -11.3 6.7 -7.1
v -11.3 6.7 -7.5
v -11.3 6.7 -10.5
v -11.3 6.7 -12
v -11.3 6.7 -12.6
v -11.3 7.6 -12.6
v -11.3 7.6 -12.7
v -11.3 9.5 -12
v -11.3 9.5 -12.7
v -11.3 11.9 -5.4
v -11.3 11.9 -7.1
v -11.3 12.2 -3.3
v -11.3 12.2 -5.4
v -11.3 13.6 12.8
v -11.3 13.6 7.7
v -11.3 14.1 7.7
v -11.3 14.1 2.1
v -11.3 15 12.8
v -11.3 15 7.7
v -11.3 15 -3.3
v -11.3 15 -7.5
v -11.3 15 -10.5
v -11.3 15 -12.8
v -11.3 15.1 1.5
v -11.3 20.3 7.7
v -11.3 20.3 1.5
v -11.2 6.7 -12.3
v -11.2 6.7 -12.6
v -11.2 7.6 -12.3
v -11.2 7.6 -12.4
v -11.2 7.6 -12.6
v -11.2 7.6 -12.7
v -11.2 9.5 -12.4
v -11.2 9.5 -12.7
v -11.1 6.7 -12
v -11.1 6.7 -12.3
v -11.1 7.5 -12
v -11.1 7.5 -12.1
v -11.1 7.6 -12.3
v -11.1 7.6 -12.4
v -11.1 9.5 -12.1
v -11.1 9.5 -12.4
v -11 7.5 -12
v -11 7.5 -12.1
v -11 9.5 -12
v -11 9.5 -12.1
v -10.6 0 7.2
v -10.6 0 6.6
v -10.6 0.1 -5.4
v -10.6 0.1 -6.9
v -10.6 0.1 -11
v -10.6 0.1 -12.8
v -10.6 2.8 -6.9
v -10.6 2.8 -11
v -10.6 6.3 -5.4
v -10.6 6.3 -12.8
v -10.6 6.7 7.2
v -10.6 6.7 6.6
v -10.6 6.7 -7.5
v -10.6 6.7 -10.5
v -10.6 7.4 9.9
v -10.6 7.4 7.7
v -10.6 7.8 12.8
v -10.6 7.8 9.9
v -10.6 13.6 12.8
v -10.6 13.6 7.7
v -10.6 18.9 -7.5
v -10.6 18.9 -10.5
v -10.3 6.7 1.5
v -10.3 6.7 -2.4
v -10.3 12.2 -2.4
v -10.3 12.2 -3.3
v -10.3 15.1 1.5
v -10.3 15.1 -3.3
v -10 0 -6.9
v -10 0 -7.1
v -10 0 -10.6
v -10 0 -11
v -10 1.1 -7.1
v -10 1.1 -10.6
v -10 2.8 -6.9
v -10 2.8 -11
v -9.9 0 -2.4
v -9.9 0 -5.4
v -9.9 6.7 -5.4
v -9.9 6.7 -7.1
v -9.9 11.9 -5.4
v -9.9 11.9 -7.1
v -9.9 12.2 -2.4
v -9.9 12.2 -5.4
v -9.6 0 6.6
v -9.6 0 1.8
v -9.6 5.2 1.8
v -9.6 6.7 6.6
v -9.6 6.7 2.1
v -9.6 8.4 2.1
v -9.6 8.4 1.8
v -9.3 6.7 7.2
v -9.3 6.7 2.1
v -9.3 7.4 7.7
v -9.3 7.4 7.2
v -9.3 14.1 7.7
v -9.3 14.1 2.1
v -9.2 0 1.8
v -9.2 0 -2
v -9.2 5.2 1.8
v -9.2 5.2 -2
v -8.6 0 12.8
v -8.6 0 7.2
v -8.6 6.7 12.8
v -8.6 6.7 9.9
v -8.6 7.4 9.9
v -8.6 7.4 7.2
v -8.4 6.7 12.8
v -8.4 6.7 9.9
v -8.4 7.8 12.8
v -8.4 7.8 9.9
v -7.7 0 -7.1
v -7.7 0 -10.6
v -7.7 1.1 -7.1
v -7.7 1.1 -10.6
v -12.8 0 12.8
v -12.8 21.7 12.8
v -12 15 12.8
v -12 21.7 12.8
v -11.3 13.6 12.8
v -11.3 15 12.8
v -10.6 7.8 12.8
v -10.6 13.6 12.8
v -8.6 0 12.8
v -8.6 6.7 12.8
v -8.4 6.7 12.8
v -8.4 7.8 12.8
v -12 15 7.7
v -12 20.3 7.7
v -11.3 13.6 7.7
v -11.3 14.1 7.7
v -11.3 15 7.7
v -11.3 20.3 7.7
v -10.6 7.4 7.7
v -10.6 13.6 7.7
v -9.3 7.4 7.7
v -9.3 14.1 7.7
v -10.6 0 6.6
v -10.6 6.7 6.6
v -9.6 0 6.6
v -9.6 6.7 6.6
v -11.3 0 1.8
v -11.3 5.2 1.8
v -11.2 0 1.8
v -11.2 5.2 1.8
v -9.6 0 1.8
v -9.6 5.2 1.8
v -9.2 0 1.8
v -9.2 5.2 1.8
v -11.3 6.7 1.5
v -11.3 15.1 1.5
v -10.3 6.7 1.5
v -10.3 15.1 1.5
v -11.3 0 -2.4
v -11.3 6.7 -2.4
v -10.3 6.7 -2.4
v -10.3 12.2 -2.4
v -9.9 0 -2.4
v -9.9 12.2 -2.4
v -10.6 0 -6.9
v -10.6 0.1 -6.9
v -10.6 2.8 -6.9
v -10 0 -6.9
v -10 2.8 -6.9
v -10 0 -7.1
v -10 1.1 -7.1
v -7.7 0 -7.1
v -7.7 1.1 -7.1
v -12 15 -7.5
v -12 18.9 -7.5
v -11.3 6.7 -7.5
v -11.3 15 -7.5
v -10.6 6.7 -7.5
v -10.6 18.9 -7.5
v -11.3 6.7 -12
v -11.3 9.5 -12
v -11.1 6.7 -12
v -11.1 7.5 -12
v -11 7.5 -12
v -11 9.5 -12
v -10.6 7.4 9.9
v -10.6 7.8 9.9
v -8.6 6.7 9.9
v -8.6 7.4 9.9
v -8.4 6.7 9.9
v -8.4 7.8 9.9
v -10.6 0 7.2
v -10.6 6.7 7.2
v -9.3 6.7 7.2
v -9.3 7.4 7.2
v -8.6 0 7.2
v -8.6 7.4 7.2
v -11.3 0 6.6
v -11.3 6.7 6.6
v -11.2 0 6.6
v -11.2 6.7 6.6
v -11.3 6.7 2.1
v -11.3 14.1 2.1
v -11.2 6.7 2.1
v -11.2 8.4 2.1
v -9.6 6.7 2.1
v -9.6 8.4 2.1
v -9.3 6.7 2.1
v -9.3 14.1 2.1
v -11.2 5.2 1.8
v -11.2 8.4 1.8
v -9.6 5.2 1.8
v -9.6 8.4 1.8
v -12 15.1 1.5
v -12 20.3 1.5
v -11.3 15.1 1.5
v -11.3 20.3 1.5
v -11.3 0 -2
v -11.3 5.2 -2
v -9.2 0 -2
v -9.2 5.2 -2
v -12 15 -3.3
v -12 15.1 -3.3
v -11.3 12.2 -3.3
v -11.3 15 -3.3
v -10.3 12.2 -3.3
v -10.3 15.1 -3.3
v -11.3 0 -5.4
v -11.3 0.1 -5.4
v -11.3 6.3 -5.4
v -11.3 6.7 -5.4
v -11.3 11.9 -5.4
v -11.3 12.2 -5.4
v -10.6 0.1 -5.4
v -10.6 6.3 -5.4
v -9.9 0 -5.4
v -9.9 6.7 -5.4
v -9.9 11.9 -5.4
v -9.9 12.2 -5.4
v -11.3 6.7 -7.1
v -11.3 11.9 -7.1
v -9.9 6.7 -7.1
v -9.9 11.9 -7.1
v -12 15 -10.5
v -12 18.9 -10.5
v -11.3 6.7 -10.5
v -11.3 15 -10.5
v -10.6 6.7 -10.5
v -10.6 18.9 -10.5
v -10 0 -10.6
v -10 1.1 -10.6
v -7.7 0 -10.6
v -7.7 1.1 -10.6
v -10.6 0 -11
v -10.6 0.1 -11
v -10.6 2.8 -11
v -10 0 -11
v -10 2.8 -11
v -11.1 7.5 -12.1
v -11.1 9.5 -12.1
v -11 7.5 -12.1
v -11 9.5 -12.1
v -11.2 6.7 -12.3
v -11.2 7.6 -12.3
v -11.1 6.7 -12.3
v -11.1 7.6 -12.3
v -11.2 7.6 -12.4
v -11.2 9.5 -12.4
v -11.1 7.6 -12.4
v -11.1 9.5 -12.4
v -11.3 6.7 -12.6
v -11.3 7.6 -12.6
v -11.2 6.7 -12.6
v -11.2 7.6 -12.6
v -11.3 7.6 -12.7
v -11.3 9.5 -12.7
v -11.2 7.6 -12.7
v -11.2 9.5 -12.7
v -12.8 0 -12.8
v -12.8 21.7 -12.8
v -12 15 -12.8
v -12 21.7 -12.8
v -11.3 0 -12.8
v -11.3 0.1 -12.8
v -11.3 6.3 -12.8
v -11.3 15 -12.8
v -10.6 0.1 -12.8
v -10.6 6.3 -12.8
v -12.8 0 12.8
v -8.6 0 12.8
v -10.6 0 7.2
v -8.6 0 7.2
v -11.3 0 6.6
v -11.2 0 6.6
v -10.6 0 6.6
v -9.6 0 6.6
v -11.3 0 1.8
v -11.2 0 1.8
v -9.6 0 1.8
v -9.2 0 1.8
v -11.3 0 -2
v -9.2 0 -2
v -11.3 0 -2.4
v -9.9 0 -2.4
v -11.3 0 -5.4
v -9.9 0 -5.4
v -10.6 0 -6.9
v -10 0 -6.9
v -10 0 -7.1
v -7.7 0 -7.1
v -10 0 -10.6
v -7.7 0 -10.6
v -10.6 0 -11
v -10 0 -11
v -12.8 0 -12.8
v -11.3 0 -12.8
v -11.3 0.1 -5.4
v -10.6 0.1 -5.4
v -10.6 0.1 -6.9
v -10.6 0.1 -11
v -11.3 0.1 -12.8
v -10.6 0.1 -12.8
v -8.6 6.7 12.8
v -8.4 6.7 12.8
v -8.6 6.7 9.9
v -8.4 6.7 9.9
v -10.6 6.7 7.2
v -9.3 6.7 7.2
v -11.3 6.7 6.6
v -11.2 6.7 6.6
v -10.6 6.7 6.6
v -9.6 6.7 6.6
v -11.3 6.7 2.1
v -11.2 6.7 2.1
v -9.6 6.7 2.1
v -9.3 6.7 2.1
v -11.3 6.7 1.5
v -10.3 6.7 1.5
v -11.3 6.7 -2.4
v -10.3 6.7 -2.4
v -11.3 6.7 -5.4
v -9.9 6.7 -5.4
v -11.3 6.7 -7.1
v -9.9 6.7 -7.1
v -11.3 6.7 -7.5
v -10.6 6.7 -7.5
v -11.3 6.7 -10.5
v -10.6 6.7 -10.5
v -11.3 6.7 -12
v -11.1 6.7 -12
v -11.2 6.7 -12.3
v -11.1 6.7 -12.3
v -11.3 6.7 -12.6
v -11.2 6.7 -12.6
v -11.1 7.5 -12
v -11 7.5 -12
v -11.1 7.5 -12.1
v -11 7.5 -12.1
v -11.2 7.6 -12.3
v -11.1 7.6 -12.3
v -11.2 7.6 -12.4
v -11.1 7.6 -12.4
v -11.3 7.6 -12.6
v -11.2 7.6 -12.6
v -11.3 7.6 -12.7
v -11.2 7.6 -12.7
v -10 1.1 -7.1
v -7.7 1.1 -7.1
v -10 1.1 -10.6
v -7.7 1.1 -10.6
v -10.6 2.8 -6.9
v -10 2.8 -6.9
v -10.6 2.8 -11
v -10 2.8 -11
v -11.3 5.2 1.8
v -11.2 5.2 1.8
v -9.6 5.2 1.8
v -9.2 5.2 1.8
v -11.3 5.2 -2
v -9.2 5.2 -2
v -11.3 6.3 -5.4
v -10.6 6.3 -5.4
v -11.3 6.3 -12.8
v -10.6 6.3 -12.8
v -10.6 7.4 9.9
v -8.6 7.4 9.9
v -10.6 7.4 7.7
v -9.3 7.4 7.7
v -9.3 7.4 7.2
v -8.6 7.4 7.2
v -10.6 7.8 12.8
v -8.4 7.8 12.8
v -10.6 7.8 9.9
v -8.4 7.8 9.9
v -11.2 8.4 2.1
v -9.6 8.4 2.1
v -11.2 8.4 1.8
v -9.6 8.4 1.8
v -11.3 9.5 -12
v -11 9.5 -12
v -11.1 9.5 -12.1
v -11 9.5 -12.1
v -11.2 9.5 -12.4
v -11.1 9.5 -12.4
v -11.3 9.5 -12.7
v -11.2 9.5 -12.7
v -11.3 11.9 -5.4
v -9.9 11.9 -5.4
v -11.3 11.9 -7.1
v -9.9 11.9 -7.1
v -10.3 12.2 -2.4
v -9.9 12.2 -2.4
v -11.3 12.2 -3.3
v -10.3 12.2 -3.3
v -11.3 12.2 -5.4
v -9.9 12.2 -5.4
v -11.3 13.6 12.8
v -10.6 13.6 12.8
v -11.3 13.6 7.7
v -10.6 13.6 7.7
v -11.3 14.1 7.7
v -9.3 14.1 7.7
v -11.3 14.1 2.1
v -9.3 14.1 2.1
v -12 15 12.8
v -11.3 15 12.8
v -12 15 7.7
v -11.3 15 7.7
v -12 15 -3.3
v -11.3 15 -3.3
v -12 15 -7.5
v -11.3 15 -7.5
v -12 15 -10.5
v -11.3 15 -10.5
v -12 15 -12.8
v -11.3 15 -12.8
v -12 15.1 1.5
v -11.3 15.1 1.5
v -10.3 15.1 1.5
v -12 15.1 -3.3
v -10.3 15.1 -3.3
v -12 18.9 -7.5
v -10.6 18.9 -7.5
v -12 18.9 -10.5
v -10.6 18.9 -10.5
v -12 20.3 7.7
v -11.3 20.3 7.7
v -12 20.3 1.5
v -11.3 20.3 1.5
v -12.8 21.7 12.8
v -12 21.7 12.8
v -12.8 21.7 -12.8
v -12 21.7 -12.8

# faces
f 3/1/1 2/1/1 1/1/1
f 4/1/1 2/1/1 3/1/1
f 7/1/1 6/1/1 5/1/1
f 8/1/1 7/1/1 5/1/1
f 9/1/1 7/1/1 8/1/1
f 10/1/1 7/1/1 9/1/1
f 11/1/1 7/1/1 10/1/1
f 14/1/1 13/1/1 12/1/1
f 15/1/1 13/1/1 14/1/1
f 18/1/2 19/1/2 23/1/2
f 23/1/2 19/1/2 24/1/2
f 22/1/2 23/1/2 24/1/2
f 20/1/2 21/1/2 25/1/2
f 16/1/2 17/1/2 26/1/2
f 24/1/2 25/1/2 27/1/2
f 22/1/2 24/1/2 27/1/2
f 16/1/2 26/1/2 28/1/2
f 26/1/2 27/1/2 28/1/2
f 27/1/2 25/1/2 29/1/2
f 28/1/2 27/1/2 29/1/2
f 25/1/2 21/1/2 29/1/2
f 34/1/2 35/1/2 36/1/2
f 36/1/2 35/1/2 37/1/2
f 30/1/2 31/1/2 38/1/2
f 32/1/2 33/1/2 39/1/2
f 30/1/2 38/1/2 42/1/2
f 38/1/2 39/1/2 42/1/2
f 42/1/2 39/1/2 43/1/2
f 43/1/2 39/1/2 44/1/2
f 39/1/2 33/1/2 45/1/2
f 44/1/2 39/1/2 45/1/2
f 40/1/2 41/1/2 46/1/2
f 46/1/2 41/1/2 47/1/2
f 47/1/2 41/1/2 48/1/2
f 48/1/2 41/1/2 49/1/2
f 49/1/2 41/1/2 50/1/2
f 50/1/2 41/1/2 51/1/2
f 51/1/2 41/1/2 52/1/2
f 52/1/2 41/1/2 53/1/2
f 49/1/2 50/1/2 54/1/2
f 53/1/2 41/1/2 55/1/2
f 47/1/2 48/1/2 57/1/2
f 56/1/2 57/1/2 59/1/2
f 60/1/2 61/1/2 62/1/2
f 43/1/2 44/1/2 63/1/2
f 60/1/2 62/1/2 64/1/2
f 62/1/2 63/1/2 64/1/2
f 64/1/2 63/1/2 65/1/2
f 58/1/2 59/1/2 66/1/2
f 57/1/2 48/1/2 67/1/2
f 66/1/2 59/1/2 67/1/2
f 59/1/2 57/1/2 67/1/2
f 49/1/2 54/1/2 68/1/2
f 54/1/2 55/1/2 68/1/2
f 55/1/2 41/1/2 69/1/2
f 68/1/2 55/1/2 69/1/2
f 63/1/2 44/1/2 70/1/2
f 65/1/2 63/1/2 70/1/2
f 65/1/2 70/1/2 71/1/2
f 71/1/2 70/1/2 72/1/2
f 73/1/2 74/1/2 75/1/2
f 75/1/2 74/1/2 76/1/2
f 76/1/2 74/1/2 77/1/2
f 77/1/2 78/1/2 79/1/2
f 76/1/2 77/1/2 79/1/2
f 79/1/2 78/1/2 80/1/2
f 81/1/2 82/1/2 83/1/2
f 83/1/2 82/1/2 84/1/2
f 84/1/2 82/1/2 85/1/2
f 84/1/2 85/1/2 87/1/2
f 85/1/2 86/1/2 87/1/2
f 87/1/2 86/1/2 88/1/2
f 89/1/2 90/1/2 91/1/2
f 91/1/2 90/1/2 92/1/2
f 95/1/2 96/1/2 99/1/2
f 97/1/2 98/1/2 100/1/2
f 95/1/2 99/1/2 101/1/2
f 99/1/2 100/1/2 101/1/2
f 100/1/2 98/1/2 102/1/2
f 101/1/2 100/1/2 102/1/2
f 93/1/2 94/1/2 103/1/2
f 103/1/2 94/1/2 104/1/2
f 107/1/2 108/1/2 110/1/2
f 109/1/2 110/1/2 111/1/2
f 110/1/2 108/1/2 112/1/2
f 111/1/2 110/1/2 112/1/2
f 105/1/2 106/1/2 113/1/2
f 113/1/2 106/1/2 114/1/2
f 115/1/2 116/1/2 117/1/2
f 115/1/2 117/1/2 119/1/2
f 117/1/2 118/1/2 119/1/2
f 119/1/2 118/1/2 120/1/2
f 121/1/2 122/1/2 125/1/2
f 123/1/2 124/1/2 126/1/2
f 121/1/2 125/1/2 127/1/2
f 125/1/2 126/1/2 127/1/2
f 126/1/2 124/1/2 128/1/2
f 127/1/2 126/1/2 128/1/2
f 129/1/2 130/1/2 131/1/2
f 129/1/2 131/1/2 133/1/2
f 131/1/2 132/1/2 133/1/2
f 133/1/2 132/1/2 134/1/2
f 129/1/2 133/1/2 135/1/2
f 135/1/2 133/1/2 136/1/2
f 137/1/2 138/1/2 139/1/2
f 137/1/2 139/1/2 140/1/2
f 140/1/2 139/1/2 141/1/2
f 141/1/2 139/1/2 142/1/2
f 142/1/2 139/1/2 143/1/2
f 144/1/2 145/1/2 147/1/2
f 146/1/2 147/1/2 148/1/2
f 147/1/2 145/1/2 149/1/2
f 148/1/2 147/1/2 149/1/2
f 150/1/2 151/1/2 152/1/2
f 152/1/2 151/1/2 153/1/2
f 154/1/2 155/1/2 156/1/2
f 156/1/2 155/1/2 157/1/2
f 157/1/2 155/1/2 158/1/2
f 158/1/2 155/1/2 159/1/2
f 160/1/2 161/1/2 162/1/2
f 162/1/2 161/1/2 163/1/2
f 164/1/2 165/1/2 166/1/2
f 166/1/2 165/1/2 167/1/2
f 170/1/3 169/1/3 168/1/3
f 171/1/3 169/1/3 170/1/3
f 172/1/3 170/1/3 168/1/3
f 173/1/3 170/1/3 172/1/3
f 174/1/3 172/1/3 168/1/3
f 175/1/3 172/1/3 174/1/3
f 176/1/3 174/1/3 168/1/3
f 177/1/3 174/1/3 176/1/3
f 178/1/3 174/1/3 177/1/3
f 179/1/3 174/1/3 178/1/3
f 184/1/3 181/1/3 180/1/3
f 185/1/3 181/1/3 184/1/3
f 187/1/3 183/1/3 182/1/3
f 188/1/3 187/1/3 186/1/3
f 189/1/3 183/1/3 187/1/3
f 189/1/3 187/1/3 188/1/3
f 192/1/3 191/1/3 190/1/3
f 193/1/3 191/1/3 192/1/3
f 196/1/3 195/1/3 194/1/3
f 197/1/3 195/1/3 196/1/3
f 200/1/3 199/1/3 198/1/3
f 201/1/3 199/1/3 200/1/3
f 204/1/3 203/1/3 202/1/3
f 205/1/3 203/1/3 204/1/3
f 208/1/3 207/1/3 206/1/3
f 210/1/3 208/1/3 206/1/3
f 210/1/3 209/1/3 208/1/3
f 211/1/3 209/1/3 210/1/3
f 215/1/3 213/1/3 212/1/3
f 215/1/3 214/1/3 213/1/3
f 216/1/3 214/1/3 215/1/3
f 219/1/3 218/1/3 217/1/3
f 220/1/3 218/1/3 219/1/3
f 224/1/3 222/1/3 221/1/3
f 225/1/3 224/1/3 223/1/3
f 226/1/3 222/1/3 224/1/3
f 226/1/3 224/1/3 225/1/3
f 229/1/3 228/1/3 227/1/3
f 230/1/3 228/1/3 229/1/3
f 231/1/3 228/1/3 230/1/3
f 232/1/3 228/1/3 231/1/3
f 233/1/4 234/1/4 236/1/4
f 235/1/4 236/1/4 237/1/4
f 236/1/4 234/1/4 238/1/4
f 237/1/4 236/1/4 238/1/4
f 239/1/4 240/1/4 241/1/4
f 239/1/4 241/1/4 243/1/4
f 241/1/4 242/1/4 243/1/4
f 243/1/4 242/1/4 244/1/4
f 245/1/4 246/1/4 247/1/4
f 247/1/4 246/1/4 248/1/4
f 249/1/4 250/1/4 251/1/4
f 251/1/4 250/1/4 252/1/4
f 252/1/4 250/1/4 254/1/4
f 253/1/4 254/1/4 255/1/4
f 254/1/4 250/1/4 256/1/4
f 255/1/4 254/1/4 256/1/4
f 257/1/4 258/1/4 259/1/4
f 259/1/4 258/1/4 260/1/4
f 261/1/4 262/1/4 263/1/4
f 263/1/4 262/1/4 264/1/4
f 265/1/4 266/1/4 267/1/4
f 267/1/4 266/1/4 268/1/4
f 269/1/4 270/1/4 272/1/4
f 271/1/4 272/1/4 273/1/4
f 272/1/4 270/1/4 274/1/4
f 273/1/4 272/1/4 274/1/4
f 275/1/4 276/1/4 281/1/4
f 277/1/4 278/1/4 282/1/4
f 275/1/4 281/1/4 283/1/4
f 281/1/4 282/1/4 283/1/4
f 282/1/4 278/1/4 284/1/4
f 283/1/4 282/1/4 284/1/4
f 279/1/4 280/1/4 285/1/4
f 285/1/4 280/1/4 286/1/4
f 287/1/4 288/1/4 289/1/4
f 289/1/4 288/1/4 290/1/4
f 291/1/4 292/1/4 294/1/4
f 293/1/4 294/1/4 295/1/4
f 294/1/4 292/1/4 296/1/4
f 295/1/4 294/1/4 296/1/4
f 297/1/4 298/1/4 299/1/4
f 299/1/4 298/1/4 300/1/4
f 301/1/4 302/1/4 304/1/4
f 302/1/4 303/1/4 304/1/4
f 304/1/4 303/1/4 305/1/4
f 306/1/4 307/1/4 308/1/4
f 308/1/4 307/1/4 309/1/4
f 310/1/4 311/1/4 312/1/4
f 312/1/4 311/1/4 313/1/4
f 314/1/4 315/1/4 316/1/4
f 316/1/4 315/1/4 317/1/4
f 318/1/4 319/1/4 320/1/4
f 320/1/4 319/1/4 321/1/4
f 322/1/4 323/1/4 324/1/4
f 324/1/4 323/1/4 325/1/4
f 326/1/4 327/1/4 328/1/4
f 328/1/4 327/1/4 329/1/4
f 326/1/4 328/1/4 330/1/4
f 330/1/4 328/1/4 331/1/4
f 331/1/4 328/1/4 332/1/4
f 332/1/4 328/1/4 333/1/4
f 331/1/4 332/1/4 334/1/4
f 334/1/4 332/1/4 335/1/4
f 338/1/5 337/1/5 336/1/5
f 339/1/5 337/1/5 338/1/5
f 340/1/5 338/1/5 336/1/5
f 341/1/5 338/1/5 340/1/5
f 342/1/5 338/1/5 341/1/5
f 344/1/5 340/1/5 336/1/5
f 345/1/5 343/1/5 342/1/5
f 345/1/5 342/1/5 341/1/5
f 346/1/5 343/1/5 345/1/5
f 348/1/5 344/1/5 336/1/5
f 348/1/5 347/1/5 346/1/5
f 348/1/5 346/1/5 345/1/5
f 348/1/5 345/1/5 344/1/5
f 349/1/5 347/1/5 348/1/5
f 350/1/5 348/1/5 336/1/5
f 352/1/5 350/1/5 336/1/5
f 352/1/5 351/1/5 350/1/5
f 353/1/5 351/1/5 352/1/5
f 356/1/5 355/1/5 354/1/5
f 358/1/5 356/1/5 354/1/5
f 358/1/5 357/1/5 356/1/5
f 359/1/5 357/1/5 358/1/5
f 360/1/5 358/1/5 354/1/5
f 361/1/5 358/1/5 360/1/5
f 362/1/5 352/1/5 336/1/5
f 363/1/5 352/1/5 362/1/5
f 366/1/5 365/1/5 364/1/5
f 367/1/5 366/1/5 364/1/5
f 368/1/5 367/1/5 364/1/5
f 369/1/5 367/1/5 368/1/5
f 372/1/5 371/1/5 370/1/5
f 373/1/5 371/1/5 372/1/5
f 378/1/5 375/1/5 374/1/5
f 379/1/5 375/1/5 378/1/5
f 380/1/5 377/1/5 376/1/5
f 381/1/5 377/1/5 380/1/5
f 382/1/5 375/1/5 379/1/5
f 383/1/5 375/1/5 382/1/5
f 386/1/5 385/1/5 384/1/5
f 387/1/5 385/1/5 386/1/5
f 390/1/5 389/1/5 388/1/5
f 391/1/5 389/1/5 390/1/5
f 394/1/5 393/1/5 392/1/5
f 395/1/5 393/1/5 394/1/5
f 398/1/5 397/1/5 396/1/5
f 399/1/5 397/1/5 398/1/5
f 400/1/5 398/1/5 396/1/5
f 401/1/5 398/1/5 400/1/5
f 404/1/5 403/1/5 402/1/5
f 405/1/5 403/1/5 404/1/5
f 408/1/5 407/1/5 406/1/5
f 409/1/5 407/1/5 408/1/5
f 412/1/5 411/1/5 410/1/5
f 413/1/5 411/1/5 412/1/5
f 414/1/6 415/1/6 416/1/6
f 416/1/6 415/1/6 417/1/6
f 418/1/6 419/1/6 420/1/6
f 420/1/6 419/1/6 421/1/6
f 422/1/6 423/1/6 426/1/6
f 424/1/6 425/1/6 426/1/6
f 423/1/6 424/1/6 426/1/6
f 426/1/6 425/1/6 427/1/6
f 428/1/6 429/1/6 430/1/6
f 430/1/6 429/1/6 431/1/6
f 432/1/6 433/1/6 434/1/6
f 434/1/6 433/1/6 435/1/6
f 435/1/6 433/1/6 436/1/6
f 436/1/6 433/1/6 437/1/6
f 438/1/6 439/1/6 440/1/6
f 440/1/6 439/1/6 441/1/6
f 442/1/6 443/1/6 444/1/6
f 444/1/6 443/1/6 445/1/6
f 446/1/6 447/1/6 448/1/6
f 448/1/6 447/1/6 449/1/6
f 446/1/6 448/1/6 450/1/6
f 450/1/6 448/1/6 451/1/6
f 446/1/6 450/1/6 452/1/6
f 452/1/6 450/1/6 453/1/6
f 454/1/6 455/1/6 456/1/6
f 456/1/6 455/1/6 457/1/6
f 458/1/6 459/1/6 461/1/6
f 460/1/6 461/1/6 462/1/6
f 461/1/6 459/1/6 463/1/6
f 462/1/6 461/1/6 463/1/6
f 464/1/6 465/1/6 466/1/6
f 466/1/6 465/1/6 467/1/6
f 468/1/6 469/1/6 470/1/6
f 470/1/6 469/1/6 471/1/6
f 472/1/6 473/1/6 474/1/6
f 474/1/6 473/1/6 475/1/6
f 476/1/6 477/1/6 478/1/6
f 478/1/6 477/1/6 479/1/6
f 480/1/6 481/1/6 482/1/6
f 482/1/6 481/1/6 483/1/6
f 484/1/6 485/1/6 487/1/6
f 485/1/6 486/1/6 487/1/6
f 487/1/6 486/1/6 488/1/6
f 489/1/6 490/1/6 491/1/6
f 491/1/6 490/1/6 492/1/6
f 493/1/6 494/1/6 495/1/6
f 495/1/6 494/1/6 496/1/6
f 497/1/6 498/1/6 499/1/6
f 499/1/6 498/1/6 500/1/6
