# MagicaVoxel @ Ephtracy

# group
o 

# material
mtllib Palanca.mtl
usemtl palette

# normals
vn -1 0 0
vn 1 0 0
vn 0 0 1
vn 0 0 -1
vn 0 -1 0
vn 0 1 0

# texcoords
vt 0.982422 0.5
vt 0.986328 0.5
vt 0.994141 0.5

# verts
v -0.5 0 0.8
v -0.5 0 -0.9
v -0.5 0.2 0.8
v -0.5 0.2 -0.9
v -0.4 0.2 0.7
v -0.4 0.2 -0.8
v -0.4 0.3 0.7
v -0.4 0.3 -0.8
v -0.1 0.3 -0.2
v -0.1 0.3 -0.4
v -0.1 0.4 -0.2
v -0.1 0.4 -0.3
v -0.1 0.4 -0.4
v -0.1 0.4 -0.5
v -0.1 0.5 -0.3
v -0.1 0.5 -0.4
v -0.1 0.5 -0.5
v -0.1 0.5 -0.6
v -0.1 0.6 -0.4
v -0.1 0.6 -0.5
v -0.1 0.6 -0.6
v -0.1 0.6 -0.7
v -0.1 0.8 -0.5
v -0.1 0.8 -0.7
v 0.1 0.2 0.5
v 0.1 0.2 -0.1
v 0.1 0.2 -0.3
v 0.1 0.2 -0.6
v 0.1 0.3 0.5
v 0.1 0.3 -0.1
v 0.1 0.3 -0.3
v 0.1 0.3 -0.4
v 0.1 0.3 -0.6
v -0.1 0.2 0.5
v -0.1 0.2 -0.1
v -0.1 0.2 -0.3
v -0.1 0.2 -0.6
v -0.1 0.3 0.5
v -0.1 0.3 -0.1
v -0.1 0.3 -0.3
v -0.1 0.3 -0.4
v -0.1 0.3 -0.6
v 0.1 0.3 -0.2
v 0.1 0.3 -0.4
v 0.1 0.4 -0.2
v 0.1 0.4 -0.3
v 0.1 0.4 -0.4
v 0.1 0.4 -0.5
v 0.1 0.5 -0.3
v 0.1 0.5 -0.4
v 0.1 0.5 -0.5
v 0.1 0.5 -0.6
v 0.1 0.6 -0.4
v 0.1 0.6 -0.5
v 0.1 0.6 -0.6
v 0.1 0.6 -0.7
v 0.1 0.8 -0.5
v 0.1 0.8 -0.7
v 0.4 0.2 0.7
v 0.4 0.2 -0.8
v 0.4 0.3 0.7
v 0.4 0.3 -0.8
v 0.5 0 0.8
v 0.5 0 -0.9
v 0.5 0.2 0.8
v 0.5 0.2 -0.9
v -0.5 0 0.8
v -0.5 0.2 0.8
v 0.5 0 0.8
v 0.5 0.2 0.8
v -0.4 0.2 0.7
v -0.4 0.3 0.7
v 0.4 0.2 0.7
v 0.4 0.3 0.7
v -0.1 0.2 -0.1
v -0.1 0.3 -0.1
v 0.1 0.2 -0.1
v 0.1 0.3 -0.1
v -0.1 0.3 -0.2
v -0.1 0.4 -0.2
v 0.1 0.3 -0.2
v 0.1 0.4 -0.2
v -0.1 0.4 -0.3
v -0.1 0.5 -0.3
v 0.1 0.4 -0.3
v 0.1 0.5 -0.3
v -0.1 0.5 -0.4
v -0.1 0.6 -0.4
v 0.1 0.5 -0.4
v 0.1 0.6 -0.4
v -0.1 0.6 -0.5
v -0.1 0.8 -0.5
v 0.1 0.6 -0.5
v 0.1 0.8 -0.5
v -0.1 0.2 -0.6
v -0.1 0.3 -0.6
v 0.1 0.2 -0.6
v 0.1 0.3 -0.6
v -0.1 0.2 0.5
v -0.1 0.3 0.5
v 0.1 0.2 0.5
v 0.1 0.3 0.5
v -0.1 0.2 -0.3
v -0.1 0.3 -0.3
v 0.1 0.2 -0.3
v 0.1 0.3 -0.3
v -0.1 0.3 -0.4
v -0.1 0.4 -0.4
v 0.1 0.3 -0.4
v 0.1 0.4 -0.4
v -0.1 0.4 -0.5
v -0.1 0.5 -0.5
v 0.1 0.4 -0.5
v 0.1 0.5 -0.5
v -0.1 0.5 -0.6
v -0.1 0.6 -0.6
v 0.1 0.5 -0.6
v 0.1 0.6 -0.6
v -0.1 0.6 -0.7
v -0.1 0.8 -0.7
v 0.1 0.6 -0.7
v 0.1 0.8 -0.7
v -0.4 0.2 -0.8
v -0.4 0.3 -0.8
v 0.4 0.2 -0.8
v 0.4 0.3 -0.8
v -0.5 0 -0.9
v -0.5 0.2 -0.9
v 0.5 0 -0.9
v 0.5 0.2 -0.9
v -0.5 0 0.8
v 0.5 0 0.8
v -0.5 0 -0.9
v 0.5 0 -0.9
v -0.1 0.3 -0.3
v 0.1 0.3 -0.3
v -0.1 0.3 -0.4
v 0.1 0.3 -0.4
v -0.1 0.4 -0.4
v 0.1 0.4 -0.4
v -0.1 0.4 -0.5
v 0.1 0.4 -0.5
v -0.1 0.5 -0.5
v 0.1 0.5 -0.5
v -0.1 0.5 -0.6
v 0.1 0.5 -0.6
v -0.1 0.6 -0.6
v 0.1 0.6 -0.6
v -0.1 0.6 -0.7
v 0.1 0.6 -0.7
v -0.5 0.2 0.8
v 0.5 0.2 0.8
v -0.4 0.2 0.7
v 0.4 0.2 0.7
v -0.1 0.2 0.5
v 0.1 0.2 0.5
v -0.1 0.2 -0.1
v 0.1 0.2 -0.1
v -0.1 0.2 -0.3
v 0.1 0.2 -0.3
v -0.1 0.2 -0.6
v 0.1 0.2 -0.6
v -0.4 0.2 -0.8
v 0.4 0.2 -0.8
v -0.5 0.2 -0.9
v 0.5 0.2 -0.9
v -0.4 0.3 0.7
v 0.4 0.3 0.7
v -0.1 0.3 0.5
v 0.1 0.3 0.5
v -0.1 0.3 -0.1
v 0.1 0.3 -0.1
v -0.1 0.3 -0.2
v 0.1 0.3 -0.2
v -0.1 0.3 -0.4
v 0.1 0.3 -0.4
v -0.1 0.3 -0.6
v 0.1 0.3 -0.6
v -0.4 0.3 -0.8
v 0.4 0.3 -0.8
v -0.1 0.4 -0.2
v 0.1 0.4 -0.2
v -0.1 0.4 -0.3
v 0.1 0.4 -0.3
v -0.1 0.5 -0.3
v 0.1 0.5 -0.3
v -0.1 0.5 -0.4
v 0.1 0.5 -0.4
v -0.1 0.6 -0.4
v 0.1 0.6 -0.4
v -0.1 0.6 -0.5
v 0.1 0.6 -0.5
v -0.1 0.8 -0.5
v 0.1 0.8 -0.5
v -0.1 0.8 -0.7
v 0.1 0.8 -0.7

# faces
f 3/2/1 2/2/1 1/2/1
f 4/2/1 2/2/1 3/2/1
f 7/2/1 6/2/1 5/2/1
f 8/2/1 6/2/1 7/2/1
f 11/1/1 10/1/1 9/1/1
f 12/1/1 10/1/1 11/1/1
f 13/1/1 10/1/1 12/1/1
f 15/1/1 14/1/1 13/1/1
f 15/1/1 13/1/1 12/1/1
f 16/1/1 14/1/1 15/1/1
f 17/1/1 14/1/1 16/1/1
f 19/1/1 18/1/1 17/1/1
f 19/1/1 17/1/1 16/1/1
f 20/1/1 18/1/1 19/1/1
f 21/1/1 18/1/1 20/1/1
f 23/1/1 22/1/1 21/1/1
f 23/1/1 21/1/1 20/1/1
f 24/1/1 22/1/1 23/1/1
f 29/2/1 26/2/1 25/2/1
f 30/2/1 26/2/1 29/2/1
f 31/2/1 28/2/1 27/2/1
f 32/2/1 28/2/1 31/2/1
f 33/2/1 28/2/1 32/2/1
f 34/2/2 35/2/2 38/2/2
f 38/2/2 35/2/2 39/2/2
f 36/2/2 37/2/2 40/2/2
f 40/2/2 37/2/2 41/2/2
f 41/2/2 37/2/2 42/2/2
f 43/1/2 44/1/2 45/1/2
f 45/1/2 44/1/2 46/1/2
f 46/1/2 44/1/2 47/1/2
f 47/1/2 48/1/2 49/1/2
f 46/1/2 47/1/2 49/1/2
f 49/1/2 48/1/2 50/1/2
f 50/1/2 48/1/2 51/1/2
f 51/1/2 52/1/2 53/1/2
f 50/1/2 51/1/2 53/1/2
f 53/1/2 52/1/2 54/1/2
f 54/1/2 52/1/2 55/1/2
f 55/1/2 56/1/2 57/1/2
f 54/1/2 55/1/2 57/1/2
f 57/1/2 56/1/2 58/1/2
f 59/2/2 60/2/2 61/2/2
f 61/2/2 60/2/2 62/2/2
f 63/2/2 64/2/2 65/2/2
f 65/2/2 64/2/2 66/2/2
f 69/2/3 68/2/3 67/2/3
f 70/2/3 68/2/3 69/2/3
f 73/2/3 72/2/3 71/2/3
f 74/2/3 72/2/3 73/2/3
f 77/1/3 76/1/3 75/1/3
f 78/1/3 76/1/3 77/1/3
f 81/1/3 80/1/3 79/1/3
f 82/1/3 80/1/3 81/1/3
f 85/1/3 84/1/3 83/1/3
f 86/1/3 84/1/3 85/1/3
f 89/1/3 88/1/3 87/1/3
f 90/1/3 88/1/3 89/1/3
f 93/1/3 92/1/3 91/1/3
f 94/1/3 92/1/3 93/1/3
f 97/2/3 96/2/3 95/2/3
f 98/2/3 96/2/3 97/2/3
f 99/2/4 100/2/4 101/2/4
f 101/2/4 100/2/4 102/2/4
f 103/1/4 104/1/4 105/1/4
f 105/1/4 104/1/4 106/1/4
f 107/1/4 108/1/4 109/1/4
f 109/1/4 108/1/4 110/1/4
f 111/1/4 112/1/4 113/1/4
f 113/1/4 112/1/4 114/1/4
f 115/1/4 116/1/4 117/1/4
f 117/1/4 116/1/4 118/1/4
f 119/1/4 120/1/4 121/1/4
f 121/1/4 120/1/4 122/1/4
f 123/2/4 124/2/4 125/2/4
f 125/2/4 124/2/4 126/2/4
f 127/2/4 128/2/4 129/2/4
f 129/2/4 128/2/4 130/2/4
f 133/2/5 132/2/5 131/2/5
f 134/2/5 132/2/5 133/2/5
f 137/1/5 136/1/5 135/1/5
f 138/1/5 136/1/5 137/1/5
f 141/1/5 140/1/5 139/1/5
f 142/1/5 140/1/5 141/1/5
f 145/1/5 144/1/5 143/1/5
f 146/1/5 144/1/5 145/1/5
f 149/1/5 148/1/5 147/1/5
f 150/1/5 148/1/5 149/1/5
f 151/2/6 152/2/6 153/2/6
f 153/2/6 152/2/6 154/2/6
f 155/3/6 156/3/6 157/3/6
f 157/3/6 156/3/6 158/3/6
f 159/3/6 160/3/6 161/3/6
f 161/3/6 160/3/6 162/3/6
f 151/2/6 153/2/6 163/2/6
f 154/2/6 152/2/6 164/2/6
f 151/2/6 163/2/6 165/2/6
f 163/2/6 164/2/6 165/2/6
f 164/2/6 152/2/6 166/2/6
f 165/2/6 164/2/6 166/2/6
f 167/2/6 168/2/6 169/2/6
f 169/2/6 168/2/6 170/2/6
f 167/2/6 169/2/6 171/2/6
f 170/2/6 168/2/6 172/2/6
f 167/2/6 171/2/6 173/2/6
f 171/1/6 172/1/6 173/1/6
f 172/2/6 168/2/6 174/2/6
f 173/1/6 172/1/6 174/1/6
f 167/2/6 173/2/6 175/2/6
f 174/2/6 168/2/6 176/2/6
f 167/2/6 175/2/6 177/2/6
f 176/2/6 168/2/6 178/2/6
f 167/2/6 177/2/6 179/2/6
f 177/2/6 178/2/6 179/2/6
f 178/2/6 168/2/6 180/2/6
f 179/2/6 178/2/6 180/2/6
f 181/1/6 182/1/6 183/1/6
f 183/1/6 182/1/6 184/1/6
f 185/1/6 186/1/6 187/1/6
f 187/1/6 186/1/6 188/1/6
f 189/1/6 190/1/6 191/1/6
f 191/1/6 190/1/6 192/1/6
f 193/1/6 194/1/6 195/1/6
f 195/1/6 194/1/6 196/1/6
