# MagicaVoxel @ Ephtracy

# group
o 

# material
mtllib Tutorial Map V1.0-2.mtl
usemtl palette

# normals
vn -1 0 0
vn 1 0 0
vn 0 0 1
vn 0 0 -1
vn 0 -1 0
vn 0 1 0

# texcoords
vt 0.916016 0.5
vt 0.982422 0.5
vt 0.990234 0.5

# verts
v -12.8 0 -43.6
v -12.8 0 -56.9
v -12.8 0 -69.2
v -12.8 14.9 -56.8
v -12.8 14.9 -56.9
v -12.8 15 -43.6
v -12.8 15 -56.8
v -12.8 15 -69.2
v 12.6 0.3 -43.6
v 12.6 0.3 -56.9
v 12.6 0.3 -68.9
v 12.6 15 -43.6
v 12.6 15 -56.9
v 12.6 15 -68.9
v -12.6 0.3 -43.6
v -12.6 0.3 -56.7
v -12.6 0.3 -56.8
v -12.6 0.3 -56.9
v -12.6 0.3 -68.9
v -12.6 7.1 -56.7
v -12.6 7.1 -56.8
v -12.6 7.1 -56.9
v -12.6 15 -43.6
v -12.6 15 -56.8
v -12.6 15 -68.9
v 12.8 0 -43.6
v 12.8 0 -56.9
v 12.8 0 -69.2
v 12.8 15 -43.6
v 12.8 15 -56.9
v 12.8 15 -69.2
v -12.8 0 -43.6
v -12.8 15 -43.6
v -12.6 0.3 -43.6
v -12.6 15 -43.6
v 12.6 0.3 -43.6
v 12.6 15 -43.6
v 12.8 0 -43.6
v 12.8 15 -43.6
v -12.6 0.3 -68.9
v -12.6 15 -68.9
v -3.1 0.3 -68.9
v -3.1 7.9 -68.9
v 6 0.3 -68.9
v 6 7.9 -68.9
v 12.6 0.3 -68.9
v 12.6 15 -68.9
v -12.8 0 -69.2
v -12.8 15 -69.2
v -3.1 0.3 -69.2
v -3.1 7.9 -69.2
v 6 0.3 -69.2
v 6 7.9 -69.2
v 12.6 0.1 -69.2
v 12.6 0.3 -69.2
v 12.7 0.1 -69.2
v 12.7 0.3 -69.2
v 12.8 0 -69.2
v 12.8 15 -69.2
v -12.8 0 -43.6
v 12.8 0 -43.6
v -12.8 0 -56.9
v 12.8 0 -56.9
v -12.8 0 -69.2
v 12.8 0 -69.2
v -12.6 0.3 -43.6
v 12.6 0.3 -43.6
v -12.6 0.3 -56.7
v -12.1 0.3 -56.7
v -12.6 0.3 -56.8
v -12.1 0.3 -56.8
v -11.3 0.3 -56.8
v -12.6 0.3 -56.9
v -12.1 0.3 -56.9
v -11.3 0.3 -56.9
v 12.6 0.3 -56.9
v -12.6 0.3 -68.9
v -3.1 0.3 -68.9
v 6 0.3 -68.9
v 12.6 0.3 -68.9
v -12.8 15 -43.6
v -12.6 15 -43.6
v 12.6 15 -43.6
v 12.8 15 -43.6
v -12.8 15 -56.8
v -12.6 15 -56.8
v 12.6 15 -56.9
v 12.8 15 -56.9
v -12.6 15 -68.9
v 12.6 15 -68.9
v -12.8 15 -69.2
v 12.8 15 -69.2

# faces
f 4/3/1 2/3/1 1/3/1
f 5/2/1 3/2/1 2/2/1
f 5/3/1 2/3/1 4/3/1
f 6/3/1 4/3/1 1/3/1
f 7/2/1 5/2/1 4/2/1
f 7/3/1 4/3/1 6/3/1
f 8/2/1 3/2/1 5/2/1
f 8/2/1 5/2/1 7/2/1
f 12/3/1 10/3/1 9/3/1
f 13/2/1 11/2/1 10/2/1
f 13/3/1 10/3/1 12/3/1
f 14/2/1 11/2/1 13/2/1
f 15/3/2 16/3/2 20/3/2
f 16/2/2 17/2/2 20/2/2
f 17/3/2 18/3/2 21/3/2
f 20/2/2 17/2/2 21/2/2
f 18/2/2 19/2/2 22/2/2
f 21/3/2 18/3/2 22/3/2
f 20/3/2 21/3/2 23/3/2
f 15/3/2 20/3/2 23/3/2
f 21/2/2 22/2/2 24/2/2
f 23/3/2 21/3/2 24/3/2
f 22/2/2 19/2/2 25/2/2
f 24/2/2 22/2/2 25/2/2
f 26/3/2 27/3/2 29/3/2
f 27/2/2 28/2/2 30/2/2
f 29/3/2 27/3/2 30/3/2
f 30/2/2 28/2/2 31/2/2
f 34/3/3 33/3/3 32/3/3
f 35/3/3 33/3/3 34/3/3
f 36/3/3 34/3/3 32/3/3
f 38/3/3 36/3/3 32/3/3
f 38/3/3 37/3/3 36/3/3
f 39/3/3 37/3/3 38/3/3
f 42/2/3 41/2/3 40/2/3
f 43/2/3 41/2/3 42/2/3
f 44/1/3 43/1/3 42/1/3
f 45/2/3 41/2/3 43/2/3
f 45/1/3 43/1/3 44/1/3
f 46/2/3 45/2/3 44/2/3
f 47/2/3 41/2/3 45/2/3
f 47/2/3 45/2/3 46/2/3
f 48/2/4 49/2/4 50/2/4
f 50/2/4 49/2/4 51/2/4
f 48/2/4 50/2/4 52/2/4
f 50/1/4 51/1/4 52/1/4
f 51/2/4 49/2/4 53/2/4
f 52/1/4 51/1/4 53/1/4
f 48/2/4 52/2/4 54/2/4
f 52/2/4 53/2/4 54/2/4
f 54/2/4 53/2/4 55/2/4
f 48/2/4 54/2/4 56/2/4
f 54/3/4 55/3/4 56/3/4
f 55/2/4 53/2/4 57/2/4
f 56/3/4 55/3/4 57/3/4
f 48/2/4 56/2/4 58/2/4
f 56/2/4 57/2/4 58/2/4
f 53/2/4 49/2/4 59/2/4
f 58/2/4 57/2/4 59/2/4
f 57/2/4 53/2/4 59/2/4
f 62/3/5 61/3/5 60/3/5
f 63/3/5 61/3/5 62/3/5
f 64/2/5 63/2/5 62/2/5
f 65/2/5 63/2/5 64/2/5
f 66/3/6 67/3/6 68/3/6
f 68/3/6 67/3/6 69/3/6
f 68/2/6 69/2/6 70/2/6
f 69/3/6 67/3/6 71/3/6
f 70/2/6 69/2/6 71/2/6
f 71/3/6 67/3/6 72/3/6
f 70/3/6 71/3/6 73/3/6
f 71/2/6 72/2/6 74/2/6
f 73/3/6 71/3/6 74/3/6
f 72/3/6 67/3/6 75/3/6
f 74/2/6 72/2/6 75/2/6
f 75/3/6 67/3/6 76/3/6
f 73/2/6 74/2/6 77/2/6
f 74/2/6 75/2/6 77/2/6
f 75/2/6 76/2/6 77/2/6
f 77/2/6 76/2/6 78/2/6
f 78/2/6 76/2/6 79/2/6
f 79/2/6 76/2/6 80/2/6
f 81/3/6 82/3/6 85/3/6
f 85/3/6 82/3/6 86/3/6
f 83/3/6 84/3/6 87/3/6
f 87/3/6 84/3/6 88/3/6
f 85/2/6 86/2/6 89/2/6
f 87/2/6 88/2/6 90/2/6
f 85/2/6 89/2/6 91/2/6
f 89/2/6 90/2/6 91/2/6
f 90/2/6 88/2/6 92/2/6
f 91/2/6 90/2/6 92/2/6
