# MagicaVoxel @ Ephtracy

# group
o 

# material
mtllib Tutorial Map V1.0-5.mtl
usemtl palette

# normals
vn -1 0 0
vn 1 0 0
vn 0 0 1
vn 0 0 -1
vn 0 -1 0
vn 0 1 0

# texcoords
vt 0.291016 0.5
vt 0.318359 0.5
vt 0.427734 0.5
vt 0.982422 0.5

# verts
v -5.3 1.9 -15.9
v -5.3 1.9 -16
v -5.3 1.9 -16.1
v -5.3 1.9 -16.4
v -5.3 1.9 -16.5
v -5.3 2 -15.8
v -5.3 2 -15.9
v -5.3 2 -16
v -5.3 2 -16.1
v -5.3 2 -16.4
v -5.3 2 -16.5
v -5.3 2 -16.6
v -5.3 2.1 -15.8
v -5.3 2.1 -15.9
v -5.3 2.2 -15.8
v -5.3 2.2 -15.9
v -5.3 2.2 -16.5
v -5.3 2.2 -16.6
v -5.3 2.3 -16.5
v -5.3 2.3 -16.6
v -5.3 2.4 -15.8
v -5.3 2.4 -15.9
v -5.3 2.4 -16
v -5.3 2.4 -16.2
v -5.3 2.4 -16.4
v -5.3 2.4 -16.5
v -5.3 2.4 -16.6
v -5.3 2.5 -15.9
v -5.3 2.5 -16
v -5.3 2.5 -16.2
v -5.3 2.5 -16.4
v -5.3 2.5 -16.5
v -5.2 1.9 -15.9
v -5.2 1.9 -16
v -5.2 1.9 -16.1
v -5.2 1.9 -16.4
v -5.2 1.9 -16.5
v -5.2 2 -15.8
v -5.2 2 -15.9
v -5.2 2 -16
v -5.2 2 -16.1
v -5.2 2 -16.4
v -5.2 2 -16.5
v -5.2 2 -16.6
v -5.2 2.1 -15.8
v -5.2 2.1 -15.9
v -5.2 2.2 -15.8
v -5.2 2.2 -15.9
v -5.2 2.2 -16.5
v -5.2 2.2 -16.6
v -5.2 2.3 -16.5
v -5.2 2.3 -16.6
v -5.2 2.4 -15.8
v -5.2 2.4 -15.9
v -5.2 2.4 -16
v -5.2 2.4 -16.2
v -5.2 2.4 -16.4
v -5.2 2.4 -16.5
v -5.2 2.4 -16.6
v -5.2 2.5 -15.9
v -5.2 2.5 -16
v -5.2 2.5 -16.2
v -5.2 2.5 -16.4
v -5.2 2.5 -16.5
v -5 2 -15.9
v -5 2 -16.5
v -5 2.4 -15.9
v -5 2.4 -16.5
v -5.3 2 -15.8
v -5.3 2.1 -15.8
v -5.3 2.2 -15.8
v -5.3 2.4 -15.8
v -5.2 2 -15.8
v -5.2 2.1 -15.8
v -5.2 2.2 -15.8
v -5.2 2.4 -15.8
v -5.3 1.9 -15.9
v -5.3 2 -15.9
v -5.3 2.4 -15.9
v -5.3 2.5 -15.9
v -5.2 1.9 -15.9
v -5.2 2 -15.9
v -5.2 2.1 -15.9
v -5.2 2.2 -15.9
v -5.2 2.4 -15.9
v -5.2 2.5 -15.9
v -5 2 -15.9
v -5 2.4 -15.9
v -5.3 1.9 -16.5
v -5.3 2 -16.5
v -5.3 2.4 -16.5
v -5.3 2.5 -16.5
v -5.2 1.9 -16.5
v -5.2 2 -16.5
v -5.2 2.2 -16.5
v -5.2 2.3 -16.5
v -5.2 2.4 -16.5
v -5.2 2.5 -16.5
v -5 2 -16.5
v -5 2.4 -16.5
v -5.3 2 -16.6
v -5.3 2.2 -16.6
v -5.3 2.3 -16.6
v -5.3 2.4 -16.6
v -5.2 2 -16.6
v -5.2 2.2 -16.6
v -5.2 2.3 -16.6
v -5.2 2.4 -16.6
v -5.3 1.9 -15.9
v -5.2 1.9 -15.9
v -5.3 1.9 -16
v -5.2 1.9 -16
v -5.3 1.9 -16.1
v -5.2 1.9 -16.1
v -5.3 1.9 -16.4
v -5.2 1.9 -16.4
v -5.3 1.9 -16.5
v -5.2 1.9 -16.5
v -5.3 2 -15.8
v -5.2 2 -15.8
v -5.3 2 -15.9
v -5.2 2 -15.9
v -5 2 -15.9
v -5.2 2 -16
v -5.2 2 -16.1
v -5.2 2 -16.4
v -5.3 2 -16.5
v -5.2 2 -16.5
v -5 2 -16.5
v -5.3 2 -16.6
v -5.2 2 -16.6
v -5.3 2.4 -15.8
v -5.2 2.4 -15.8
v -5.3 2.4 -15.9
v -5.2 2.4 -15.9
v -5 2.4 -15.9
v -5.2 2.4 -16
v -5.2 2.4 -16.2
v -5.2 2.4 -16.4
v -5.3 2.4 -16.5
v -5.2 2.4 -16.5
v -5 2.4 -16.5
v -5.3 2.4 -16.6
v -5.2 2.4 -16.6
v -5.3 2.5 -15.9
v -5.2 2.5 -15.9
v -5.3 2.5 -16
v -5.2 2.5 -16
v -5.3 2.5 -16.2
v -5.2 2.5 -16.2
v -5.3 2.5 -16.4
v -5.2 2.5 -16.4
v -5.3 2.5 -16.5
v -5.2 2.5 -16.5

# faces
f 7/2/1 2/2/1 1/2/1
f 8/1/1 3/1/1 2/1/1
f 8/2/1 2/2/1 7/2/1
f 9/3/1 4/3/1 3/3/1
f 9/1/1 3/1/1 8/1/1
f 10/1/1 5/1/1 4/1/1
f 10/3/1 4/3/1 9/3/1
f 11/1/1 5/1/1 10/1/1
f 13/1/1 7/1/1 6/1/1
f 14/4/1 9/4/1 8/4/1
f 14/1/1 7/1/1 13/1/1
f 14/4/1 8/4/1 7/4/1
f 14/4/1 11/4/1 10/4/1
f 14/4/1 10/4/1 9/4/1
f 15/3/1 14/3/1 13/3/1
f 16/4/1 11/4/1 14/4/1
f 16/3/1 14/3/1 15/3/1
f 17/2/1 12/2/1 11/2/1
f 17/4/1 11/4/1 16/4/1
f 18/2/1 12/2/1 17/2/1
f 19/4/1 17/4/1 16/4/1
f 19/3/1 18/3/1 17/3/1
f 20/3/1 18/3/1 19/3/1
f 21/2/1 16/2/1 15/2/1
f 22/4/1 19/4/1 16/4/1
f 22/2/1 16/2/1 21/2/1
f 23/4/1 19/4/1 22/4/1
f 24/4/1 19/4/1 23/4/1
f 25/4/1 19/4/1 24/4/1
f 26/1/1 20/1/1 19/1/1
f 26/4/1 19/4/1 25/4/1
f 27/1/1 20/1/1 26/1/1
f 28/1/1 23/1/1 22/1/1
f 29/3/1 24/3/1 23/3/1
f 29/1/1 23/1/1 28/1/1
f 30/1/1 25/1/1 24/1/1
f 30/3/1 24/3/1 29/3/1
f 31/2/1 26/2/1 25/2/1
f 31/1/1 25/1/1 30/1/1
f 32/2/1 26/2/1 31/2/1
f 33/2/2 34/2/2 39/2/2
f 34/1/2 35/1/2 40/1/2
f 39/2/2 34/2/2 40/2/2
f 35/3/2 36/3/2 41/3/2
f 40/1/2 35/1/2 41/1/2
f 36/1/2 37/1/2 42/1/2
f 41/3/2 36/3/2 42/3/2
f 42/1/2 37/1/2 43/1/2
f 38/1/2 39/1/2 45/1/2
f 45/1/2 39/1/2 46/1/2
f 45/3/2 46/3/2 47/3/2
f 47/3/2 46/3/2 48/3/2
f 43/2/2 44/2/2 49/2/2
f 49/2/2 44/2/2 50/2/2
f 49/3/2 50/3/2 51/3/2
f 51/3/2 50/3/2 52/3/2
f 47/2/2 48/2/2 53/2/2
f 53/2/2 48/2/2 54/2/2
f 51/1/2 52/1/2 58/1/2
f 58/1/2 52/1/2 59/1/2
f 54/1/2 55/1/2 60/1/2
f 55/3/2 56/3/2 61/3/2
f 60/1/2 55/1/2 61/1/2
f 56/1/2 57/1/2 62/1/2
f 61/3/2 56/3/2 62/3/2
f 57/2/2 58/2/2 63/2/2
f 62/1/2 57/1/2 63/1/2
f 63/2/2 58/2/2 64/2/2
f 65/4/2 66/4/2 67/4/2
f 67/4/2 66/4/2 68/4/2
f 73/1/3 70/1/3 69/1/3
f 74/3/3 71/3/3 70/3/3
f 74/1/3 70/1/3 73/1/3
f 75/2/3 72/2/3 71/2/3
f 75/3/3 71/3/3 74/3/3
f 76/2/3 72/2/3 75/2/3
f 81/2/3 78/2/3 77/2/3
f 82/2/3 78/2/3 81/2/3
f 85/1/3 80/1/3 79/1/3
f 86/1/3 80/1/3 85/1/3
f 87/4/3 84/4/3 83/4/3
f 87/4/3 85/4/3 84/4/3
f 87/4/3 83/4/3 82/4/3
f 88/4/3 85/4/3 87/4/3
f 89/1/4 90/1/4 93/1/4
f 93/1/4 90/1/4 94/1/4
f 91/2/4 92/2/4 97/2/4
f 97/2/4 92/2/4 98/2/4
f 95/4/4 96/4/4 99/4/4
f 96/4/4 97/4/4 99/4/4
f 94/4/4 95/4/4 99/4/4
f 99/4/4 97/4/4 100/4/4
f 101/2/4 102/2/4 105/2/4
f 102/3/4 103/3/4 106/3/4
f 105/2/4 102/2/4 106/2/4
f 103/1/4 104/1/4 107/1/4
f 106/3/4 103/3/4 107/3/4
f 107/1/4 104/1/4 108/1/4
f 111/2/5 110/2/5 109/2/5
f 112/2/5 110/2/5 111/2/5
f 113/1/5 112/1/5 111/1/5
f 114/1/5 112/1/5 113/1/5
f 115/3/5 114/3/5 113/3/5
f 116/3/5 114/3/5 115/3/5
f 117/1/5 116/1/5 115/1/5
f 118/1/5 116/1/5 117/1/5
f 121/1/5 120/1/5 119/1/5
f 122/1/5 120/1/5 121/1/5
f 124/4/5 123/4/5 122/4/5
f 125/4/5 123/4/5 124/4/5
f 126/4/5 123/4/5 125/4/5
f 128/4/5 123/4/5 126/4/5
f 129/4/5 123/4/5 128/4/5
f 130/2/5 128/2/5 127/2/5
f 131/2/5 128/2/5 130/2/5
f 132/2/6 133/2/6 134/2/6
f 134/2/6 133/2/6 135/2/6
f 135/4/6 136/4/6 137/4/6
f 137/4/6 136/4/6 138/4/6
f 138/4/6 136/4/6 139/4/6
f 139/4/6 136/4/6 141/4/6
f 141/4/6 136/4/6 142/4/6
f 140/1/6 141/1/6 143/1/6
f 143/1/6 141/1/6 144/1/6
f 145/1/6 146/1/6 147/1/6
f 147/1/6 146/1/6 148/1/6
f 147/3/6 148/3/6 149/3/6
f 149/3/6 148/3/6 150/3/6
f 149/1/6 150/1/6 151/1/6
f 151/1/6 150/1/6 152/1/6
f 151/2/6 152/2/6 153/2/6
f 153/2/6 152/2/6 154/2/6
