# MagicaVoxel @ Ephtracy

# group
o 

# material
mtllib Tutorial Map V1.0-1.mtl
usemtl palette

# normals
vn -1 0 0
vn 1 0 0
vn 0 0 1
vn 0 0 -1
vn 0 -1 0
vn 0 1 0

# texcoords
vt 0.310547 0.5
vt 0.365234 0.5
vt 0.431641 0.5
vt 0.994141 0.5

# verts
v 10.6 0.3 -47.3
v 10.6 0.3 -47.4
v 10.6 0.4 -47.3
v 10.6 0.4 -47.4
v 10.7 0.3 -47.2
v 10.7 0.3 -47.3
v 10.7 0.3 -47.4
v 10.7 0.3 -47.5
v 10.7 0.4 -47.2
v 10.7 0.4 -47.3
v 10.7 0.4 -47.4
v 10.7 0.4 -47.5
v 10.8 0.6 -47
v 10.8 0.6 -47.5
v 10.8 0.7 -47.2
v 10.8 0.7 -47.3
v 10.8 0.9 -47.2
v 10.8 0.9 -47.3
v 10.8 1 -47
v 10.8 1 -47.5
v 11.1 0.3 -45.6
v 11.1 0.3 -48.8
v 11.1 0.6 -47
v 11.1 0.6 -47.5
v 11.1 0.8 -45.6
v 11.1 0.8 -47
v 11.1 0.8 -47.5
v 11.1 0.8 -48.8
v 11.1 0.9 -45.6
v 11.1 0.9 -47
v 11.1 0.9 -47.5
v 11.1 0.9 -48.8
v 11.1 1 -45.6
v 11.1 1 -47
v 11.1 1 -47.5
v 11.1 1 -48.8
v 11.2 1 -45.7
v 11.2 1 -48.7
v 11.2 1.1 -45.7
v 11.2 1.1 -48.7
v 11.3 1.1 -45.8
v 11.3 1.1 -48.6
v 11.3 1.2 -45.8
v 11.3 1.2 -48.6
v 11.4 1.2 -45.9
v 11.4 1.2 -48.5
v 11.4 1.3 -45.9
v 11.4 1.3 -48.5
v 11.5 1.3 -46
v 11.5 1.3 -48.4
v 11.5 1.4 -46
v 11.5 1.4 -48.4
v 11.6 1.4 -46.2
v 11.6 1.4 -48.3
v 11.6 1.5 -46.2
v 11.6 1.5 -48.3
v 10.7 0.3 -47.3
v 10.7 0.3 -47.4
v 10.7 0.4 -47.3
v 10.7 0.4 -47.4
v 10.9 0.3 -47.2
v 10.9 0.3 -47.3
v 10.9 0.3 -47.4
v 10.9 0.3 -47.5
v 10.9 0.4 -47.2
v 10.9 0.4 -47.3
v 10.9 0.4 -47.4
v 10.9 0.4 -47.5
v 12.1 1.4 -46.2
v 12.1 1.4 -48.3
v 12.1 1.5 -46.2
v 12.1 1.5 -48.3
v 12.2 1.3 -46
v 12.2 1.3 -48.4
v 12.2 1.4 -46
v 12.2 1.4 -48.4
v 12.3 1.2 -45.9
v 12.3 1.2 -48.5
v 12.3 1.3 -45.9
v 12.3 1.3 -48.5
v 12.4 1.1 -45.8
v 12.4 1.1 -48.6
v 12.4 1.2 -45.8
v 12.4 1.2 -48.6
v 12.5 1 -45.7
v 12.5 1 -48.7
v 12.5 1.1 -45.7
v 12.5 1.1 -48.7
v 12.6 0.3 -45.6
v 12.6 0.3 -48.8
v 12.6 0.8 -45.6
v 12.6 0.8 -48.8
v 12.6 0.9 -45.6
v 12.6 0.9 -48.8
v 12.6 1 -45.6
v 12.6 1 -48.8
v 11.1 0.3 -45.6
v 11.1 0.8 -45.6
v 11.1 0.9 -45.6
v 11.1 1 -45.6
v 12.6 0.3 -45.6
v 12.6 0.8 -45.6
v 12.6 0.9 -45.6
v 12.6 1 -45.6
v 11.2 1 -45.7
v 11.2 1.1 -45.7
v 12.5 1 -45.7
v 12.5 1.1 -45.7
v 11.3 1.1 -45.8
v 11.3 1.2 -45.8
v 12.4 1.1 -45.8
v 12.4 1.2 -45.8
v 11.4 1.2 -45.9
v 11.4 1.3 -45.9
v 12.3 1.2 -45.9
v 12.3 1.3 -45.9
v 11.5 1.3 -46
v 11.5 1.4 -46
v 12.2 1.3 -46
v 12.2 1.4 -46
v 11.6 1.4 -46.2
v 11.6 1.5 -46.2
v 12.1 1.4 -46.2
v 12.1 1.5 -46.2
v 10.8 0.6 -47
v 10.8 1 -47
v 11.1 0.6 -47
v 11.1 0.8 -47
v 11.1 0.9 -47
v 11.1 1 -47
v 10.7 0.3 -47.2
v 10.7 0.4 -47.2
v 10.9 0.3 -47.2
v 10.9 0.4 -47.2
v 10.6 0.3 -47.3
v 10.6 0.4 -47.3
v 10.7 0.3 -47.3
v 10.7 0.4 -47.3
v 10.7 0.3 -47.4
v 10.7 0.4 -47.4
v 10.9 0.3 -47.4
v 10.9 0.4 -47.4
v 10.7 0.3 -47.3
v 10.7 0.4 -47.3
v 10.9 0.3 -47.3
v 10.9 0.4 -47.3
v 10.6 0.3 -47.4
v 10.6 0.4 -47.4
v 10.7 0.3 -47.4
v 10.7 0.4 -47.4
v 10.7 0.3 -47.5
v 10.7 0.4 -47.5
v 10.8 0.6 -47.5
v 10.8 1 -47.5
v 10.9 0.3 -47.5
v 10.9 0.4 -47.5
v 11.1 0.6 -47.5
v 11.1 0.8 -47.5
v 11.1 0.9 -47.5
v 11.1 1 -47.5
v 11.6 1.4 -48.3
v 11.6 1.5 -48.3
v 12.1 1.4 -48.3
v 12.1 1.5 -48.3
v 11.5 1.3 -48.4
v 11.5 1.4 -48.4
v 12.2 1.3 -48.4
v 12.2 1.4 -48.4
v 11.4 1.2 -48.5
v 11.4 1.3 -48.5
v 12.3 1.2 -48.5
v 12.3 1.3 -48.5
v 11.3 1.1 -48.6
v 11.3 1.2 -48.6
v 12.4 1.1 -48.6
v 12.4 1.2 -48.6
v 11.2 1 -48.7
v 11.2 1.1 -48.7
v 12.5 1 -48.7
v 12.5 1.1 -48.7
v 11.1 0.3 -48.8
v 11.1 0.8 -48.8
v 11.1 0.9 -48.8
v 11.1 1 -48.8
v 12.6 0.3 -48.8
v 12.6 0.8 -48.8
v 12.6 0.9 -48.8
v 12.6 1 -48.8
v 11.1 0.3 -45.6
v 12.6 0.3 -45.6
v 10.7 0.3 -47.2
v 10.9 0.3 -47.2
v 10.6 0.3 -47.3
v 10.7 0.3 -47.3
v 10.9 0.3 -47.3
v 10.6 0.3 -47.4
v 10.7 0.3 -47.4
v 10.9 0.3 -47.4
v 10.7 0.3 -47.5
v 10.9 0.3 -47.5
v 11.1 0.3 -48.8
v 12.6 0.3 -48.8
v 10.8 0.6 -47
v 11.1 0.6 -47
v 10.8 0.6 -47.5
v 11.1 0.6 -47.5
v 10.7 0.4 -47.2
v 10.9 0.4 -47.2
v 10.6 0.4 -47.3
v 10.7 0.4 -47.3
v 10.9 0.4 -47.3
v 10.6 0.4 -47.4
v 10.7 0.4 -47.4
v 10.9 0.4 -47.4
v 10.7 0.4 -47.5
v 10.9 0.4 -47.5
v 11.1 1 -45.6
v 12.6 1 -45.6
v 11.2 1 -45.7
v 12.5 1 -45.7
v 10.8 1 -47
v 11.1 1 -47
v 10.9 1 -47.1
v 11 1 -47.1
v 10.9 1 -47.2
v 11 1 -47.2
v 10.9 1 -47.3
v 11 1 -47.3
v 10.9 1 -47.4
v 11 1 -47.4
v 10.8 1 -47.5
v 11.1 1 -47.5
v 11.2 1 -48.7
v 12.5 1 -48.7
v 11.1 1 -48.8
v 12.6 1 -48.8
v 11.2 1.1 -45.7
v 12.5 1.1 -45.7
v 11.3 1.1 -45.8
v 12.4 1.1 -45.8
v 11.3 1.1 -48.6
v 12.4 1.1 -48.6
v 11.2 1.1 -48.7
v 12.5 1.1 -48.7
v 11.3 1.2 -45.8
v 12.4 1.2 -45.8
v 11.4 1.2 -45.9
v 12.3 1.2 -45.9
v 11.4 1.2 -48.5
v 12.3 1.2 -48.5
v 11.3 1.2 -48.6
v 12.4 1.2 -48.6
v 11.4 1.3 -45.9
v 12.3 1.3 -45.9
v 11.5 1.3 -46
v 12.2 1.3 -46
v 11.5 1.3 -48.4
v 12.2 1.3 -48.4
v 11.4 1.3 -48.5
v 12.3 1.3 -48.5
v 11.5 1.4 -46
v 12.2 1.4 -46
v 11.6 1.4 -46.2
v 12.1 1.4 -46.2
v 11.6 1.4 -48.3
v 12.1 1.4 -48.3
v 11.5 1.4 -48.4
v 12.2 1.4 -48.4
v 11.6 1.5 -46.2
v 12.1 1.5 -46.2
v 11.6 1.5 -48.3
v 12.1 1.5 -48.3

# faces
f 3/3/1 2/3/1 1/3/1
f 4/3/1 2/3/1 3/3/1
f 9/3/1 6/3/1 5/3/1
f 10/3/1 6/3/1 9/3/1
f 11/3/1 8/3/1 7/3/1
f 12/3/1 8/3/1 11/3/1
f 15/3/1 14/3/1 13/3/1
f 16/3/1 14/3/1 15/3/1
f 17/3/1 15/3/1 13/3/1
f 17/4/1 16/4/1 15/4/1
f 18/3/1 14/3/1 16/3/1
f 18/4/1 16/4/1 17/4/1
f 19/3/1 17/3/1 13/3/1
f 19/3/1 18/3/1 17/3/1
f 20/3/1 14/3/1 18/3/1
f 20/3/1 18/3/1 19/3/1
f 23/1/1 22/1/1 21/1/1
f 24/1/1 22/1/1 23/1/1
f 25/1/1 23/1/1 21/1/1
f 26/1/1 23/1/1 25/1/1
f 27/1/1 22/1/1 24/1/1
f 28/1/1 22/1/1 27/1/1
f 29/2/1 26/2/1 25/2/1
f 30/2/1 26/2/1 29/2/1
f 31/2/1 28/2/1 27/2/1
f 32/2/1 28/2/1 31/2/1
f 33/1/1 30/1/1 29/1/1
f 34/1/1 30/1/1 33/1/1
f 35/1/1 32/1/1 31/1/1
f 36/1/1 32/1/1 35/1/1
f 39/1/1 38/1/1 37/1/1
f 40/1/1 38/1/1 39/1/1
f 43/1/1 42/1/1 41/1/1
f 44/1/1 42/1/1 43/1/1
f 47/1/1 46/1/1 45/1/1
f 48/1/1 46/1/1 47/1/1
f 51/1/1 50/1/1 49/1/1
f 52/1/1 50/1/1 51/1/1
f 55/1/1 54/1/1 53/1/1
f 56/1/1 54/1/1 55/1/1
f 57/3/2 58/3/2 59/3/2
f 59/3/2 58/3/2 60/3/2
f 61/3/2 62/3/2 65/3/2
f 65/3/2 62/3/2 66/3/2
f 63/3/2 64/3/2 67/3/2
f 67/3/2 64/3/2 68/3/2
f 69/1/2 70/1/2 71/1/2
f 71/1/2 70/1/2 72/1/2
f 73/1/2 74/1/2 75/1/2
f 75/1/2 74/1/2 76/1/2
f 77/1/2 78/1/2 79/1/2
f 79/1/2 78/1/2 80/1/2
f 81/1/2 82/1/2 83/1/2
f 83/1/2 82/1/2 84/1/2
f 85/1/2 86/1/2 87/1/2
f 87/1/2 86/1/2 88/1/2
f 89/1/2 90/1/2 91/1/2
f 91/1/2 90/1/2 92/1/2
f 91/2/2 92/2/2 93/2/2
f 93/2/2 92/2/2 94/2/2
f 93/1/2 94/1/2 95/1/2
f 95/1/2 94/1/2 96/1/2
f 101/1/3 98/1/3 97/1/3
f 102/2/3 99/2/3 98/2/3
f 102/1/3 98/1/3 101/1/3
f 103/1/3 100/1/3 99/1/3
f 103/2/3 99/2/3 102/2/3
f 104/1/3 100/1/3 103/1/3
f 107/1/3 106/1/3 105/1/3
f 108/1/3 106/1/3 107/1/3
f 111/1/3 110/1/3 109/1/3
f 112/1/3 110/1/3 111/1/3
f 115/1/3 114/1/3 113/1/3
f 116/1/3 114/1/3 115/1/3
f 119/1/3 118/1/3 117/1/3
f 120/1/3 118/1/3 119/1/3
f 123/1/3 122/1/3 121/1/3
f 124/1/3 122/1/3 123/1/3
f 127/3/3 126/3/3 125/3/3
f 128/3/3 126/3/3 127/3/3
f 129/3/3 126/3/3 128/3/3
f 130/3/3 126/3/3 129/3/3
f 133/3/3 132/3/3 131/3/3
f 134/3/3 132/3/3 133/3/3
f 137/3/3 136/3/3 135/3/3
f 138/3/3 136/3/3 137/3/3
f 141/3/3 140/3/3 139/3/3
f 142/3/3 140/3/3 141/3/3
f 143/3/4 144/3/4 145/3/4
f 145/3/4 144/3/4 146/3/4
f 147/3/4 148/3/4 149/3/4
f 149/3/4 148/3/4 150/3/4
f 151/3/4 152/3/4 155/3/4
f 155/3/4 152/3/4 156/3/4
f 153/3/4 154/3/4 157/3/4
f 157/3/4 154/3/4 158/3/4
f 158/3/4 154/3/4 159/3/4
f 159/3/4 154/3/4 160/3/4
f 161/1/4 162/1/4 163/1/4
f 163/1/4 162/1/4 164/1/4
f 165/1/4 166/1/4 167/1/4
f 167/1/4 166/1/4 168/1/4
f 169/1/4 170/1/4 171/1/4
f 171/1/4 170/1/4 172/1/4
f 173/1/4 174/1/4 175/1/4
f 175/1/4 174/1/4 176/1/4
f 177/1/4 178/1/4 179/1/4
f 179/1/4 178/1/4 180/1/4
f 181/1/4 182/1/4 185/1/4
f 182/2/4 183/2/4 186/2/4
f 185/1/4 182/1/4 186/1/4
f 183/1/4 184/1/4 187/1/4
f 186/2/4 183/2/4 187/2/4
f 187/1/4 184/1/4 188/1/4
f 194/3/5 192/3/5 191/3/5
f 195/3/5 192/3/5 194/3/5
f 196/3/5 194/3/5 193/3/5
f 197/3/5 194/3/5 196/3/5
f 199/3/5 198/3/5 197/3/5
f 200/3/5 198/3/5 199/3/5
f 201/1/5 190/1/5 189/1/5
f 202/1/5 190/1/5 201/1/5
f 205/3/5 204/3/5 203/3/5
f 206/3/5 204/3/5 205/3/5
f 207/3/6 208/3/6 210/3/6
f 210/3/6 208/3/6 211/3/6
f 209/3/6 210/3/6 212/3/6
f 212/3/6 210/3/6 213/3/6
f 213/3/6 214/3/6 215/3/6
f 215/3/6 214/3/6 216/3/6
f 217/1/6 218/1/6 219/1/6
f 219/1/6 218/1/6 220/1/6
f 217/1/6 219/1/6 222/1/6
f 221/3/6 222/3/6 223/3/6
f 223/3/6 222/3/6 224/3/6
f 221/3/6 223/3/6 225/3/6
f 223/4/6 224/4/6 225/4/6
f 224/3/6 222/3/6 226/3/6
f 225/4/6 224/4/6 226/4/6
f 221/3/6 225/3/6 227/3/6
f 225/3/6 226/3/6 227/3/6
f 226/3/6 222/3/6 228/3/6
f 227/3/6 226/3/6 228/3/6
f 221/3/6 227/3/6 229/3/6
f 227/4/6 228/4/6 229/4/6
f 228/3/6 222/3/6 230/3/6
f 229/4/6 228/4/6 230/4/6
f 221/3/6 229/3/6 231/3/6
f 229/3/6 230/3/6 231/3/6
f 222/1/6 219/1/6 232/1/6
f 231/3/6 230/3/6 232/3/6
f 230/3/6 222/3/6 232/3/6
f 232/1/6 219/1/6 233/1/6
f 220/1/6 218/1/6 234/1/6
f 232/1/6 233/1/6 235/1/6
f 233/1/6 234/1/6 235/1/6
f 234/1/6 218/1/6 236/1/6
f 235/1/6 234/1/6 236/1/6
f 237/1/6 238/1/6 239/1/6
f 239/1/6 238/1/6 240/1/6
f 237/1/6 239/1/6 241/1/6
f 240/1/6 238/1/6 242/1/6
f 237/1/6 241/1/6 243/1/6
f 241/1/6 242/1/6 243/1/6
f 242/1/6 238/1/6 244/1/6
f 243/1/6 242/1/6 244/1/6
f 245/1/6 246/1/6 247/1/6
f 247/1/6 246/1/6 248/1/6
f 245/1/6 247/1/6 249/1/6
f 248/1/6 246/1/6 250/1/6
f 245/1/6 249/1/6 251/1/6
f 249/1/6 250/1/6 251/1/6
f 250/1/6 246/1/6 252/1/6
f 251/1/6 250/1/6 252/1/6
f 253/1/6 254/1/6 255/1/6
f 255/1/6 254/1/6 256/1/6
f 253/1/6 255/1/6 257/1/6
f 256/1/6 254/1/6 258/1/6
f 253/1/6 257/1/6 259/1/6
f 257/1/6 258/1/6 259/1/6
f 258/1/6 254/1/6 260/1/6
f 259/1/6 258/1/6 260/1/6
f 261/1/6 262/1/6 263/1/6
f 263/1/6 262/1/6 264/1/6
f 261/1/6 263/1/6 265/1/6
f 264/1/6 262/1/6 266/1/6
f 261/1/6 265/1/6 267/1/6
f 265/1/6 266/1/6 267/1/6
f 266/1/6 262/1/6 268/1/6
f 267/1/6 266/1/6 268/1/6
f 269/1/6 270/1/6 271/1/6
f 271/1/6 270/1/6 272/1/6
